<?xml version="1.0" encoding="utf-8"?>
<!-- Generator: Adobe Illustrator 17.0.0, SVG Export Plug-In . SVG Version: 6.00 Build 0)  -->
<!DOCTYPE svg PUBLIC "-//W3C//DTD SVG 1.1//EN" "http://www.w3.org/Graphics/SVG/1.1/DTD/svg11.dtd">
<svg version="1.1" id="Слой_1" xmlns="http://www.w3.org/2000/svg" xmlns:xlink="http://www.w3.org/1999/xlink" x="0px" y="0px"
	 width="13.626px" height="20px" viewBox="0 0 13.626 20" enable-background="new 0 0 13.626 20" xml:space="preserve">
<path fill-rule="evenodd" clip-rule="evenodd" fill="#010202" d="M6.797,0c0.553,0,1,0.448,1,1v18c0,0.552-0.448,1-1,1
	c-0.552,0-1-0.448-1-1V1C5.797,0.448,6.245,0,6.797,0z"/>
<path fill-rule="evenodd" clip-rule="evenodd" fill="#010202" d="M7.676,0.464l5.657,5.657c0.391,0.391,0.391,1.024,0,1.415
	c-0.391,0.39-1.024,0.39-1.414,0L6.262,1.878c-0.391-0.39-0.391-1.024,0-1.414C6.652,0.074,7.285,0.074,7.676,0.464z"/>
<path fill-rule="evenodd" clip-rule="evenodd" fill="#010202" d="M5.95,0.464L0.293,6.121c-0.391,0.391-0.391,1.024,0,1.415
	c0.391,0.39,1.024,0.39,1.414,0l5.657-5.657c0.39-0.39,0.39-1.024,0-1.414C6.974,0.074,6.34,0.074,5.95,0.464z"/>
</svg>
