<?xml version="1.0" encoding="utf-8"?>
<!-- Generator: Adobe Illustrator 17.0.0, SVG Export Plug-In . SVG Version: 6.00 Build 0)  -->
<!DOCTYPE svg PUBLIC "-//W3C//DTD SVG 1.1//EN" "http://www.w3.org/Graphics/SVG/1.1/DTD/svg11.dtd">
<svg version="1.1" id="Слой_1" xmlns="http://www.w3.org/2000/svg" xmlns:xlink="http://www.w3.org/1999/xlink" x="0px" y="0px"
	 width="14.626px" height="8.657px" viewBox="0 0 14.626 8.657" enable-background="new 0 0 14.626 8.657" xml:space="preserve">
<path fill-rule="evenodd" clip-rule="evenodd" d="M8.176,7.864l5.657-5.657c0.391-0.391,0.391-1.024,0-1.414
	c-0.391-0.39-1.024-0.39-1.414,0L6.762,6.45c-0.391,0.391-0.391,1.024,0,1.414C7.152,8.254,7.785,8.254,8.176,7.864z"/>
<path fill-rule="evenodd" clip-rule="evenodd" d="M6.45,7.864L0.793,2.207c-0.39-0.391-0.39-1.024,0-1.414
	c0.391-0.39,1.024-0.39,1.414,0L7.864,6.45c0.39,0.391,0.39,1.024,0,1.414C7.474,8.254,6.84,8.254,6.45,7.864z"/>
</svg>
