<?xml version="1.0" encoding="utf-8"?>
<!-- Generator: Adobe Illustrator 17.0.0, SVG Export Plug-In . SVG Version: 6.00 Build 0)  -->
<!DOCTYPE svg PUBLIC "-//W3C//DTD SVG 1.1//EN" "http://www.w3.org/Graphics/SVG/1.1/DTD/svg11.dtd">
<svg version="1.1" id="Слой_1" xmlns="http://www.w3.org/2000/svg" xmlns:xlink="http://www.w3.org/1999/xlink" x="0px" y="0px"
	 width="14.626px" height="8.657px" viewBox="0 0 14.626 8.657" enable-background="new 0 0 14.626 8.657" xml:space="preserve">
<path fill-rule="evenodd" clip-rule="evenodd" d="M6.762,0.793c-0.391,0.39-0.391,1.024,0,1.414l5.657,5.657
	c0.39,0.39,1.023,0.39,1.414,0c0.391-0.391,0.391-1.024,0-1.414L8.176,0.793C7.785,0.402,7.152,0.402,6.762,0.793z"/>
<path fill-rule="evenodd" clip-rule="evenodd" d="M7.864,0.793c0.39,0.39,0.39,1.024,0,1.414L2.207,7.864
	c-0.391,0.39-1.024,0.39-1.414,0c-0.39-0.391-0.39-1.024,0-1.414L6.45,0.793C6.84,0.402,7.474,0.402,7.864,0.793z"/>
</svg>
