<?xml version="1.0" encoding="utf-8"?>
<!-- Generator: Adobe Illustrator 17.0.0, SVG Export Plug-In . SVG Version: 6.00 Build 0)  -->
<!DOCTYPE svg PUBLIC "-//W3C//DTD SVG 1.1//EN" "http://www.w3.org/Graphics/SVG/1.1/DTD/svg11.dtd">
<svg version="1.1" id="Слой_1" xmlns="http://www.w3.org/2000/svg" xmlns:xlink="http://www.w3.org/1999/xlink" x="0px" y="0px"
	 width="17.657px" height="33.626px" viewBox="0 0 17.657 33.626" enable-background="new 0 0 17.657 33.626" xml:space="preserve">
<path fill-rule="evenodd" clip-rule="evenodd" fill="#010202" d="M17.364,17.676L1.707,33.333c-0.391,0.39-1.024,0.39-1.414,0
	c-0.391-0.39-0.391-1.023,0-1.414L15.95,16.262c0.391-0.39,1.024-0.39,1.414,0C17.754,16.652,17.754,17.285,17.364,17.676z"/>
<path fill-rule="evenodd" clip-rule="evenodd" fill="#010202" d="M17.364,15.95L1.707,0.293c-0.391-0.391-1.024-0.391-1.414,0
	c-0.391,0.391-0.391,1.024,0,1.414L15.95,17.364c0.391,0.39,1.024,0.39,1.414,0C17.754,16.974,17.754,16.34,17.364,15.95z"/>
</svg>
