<?xml version="1.0" encoding="utf-8"?>
<!-- Generator: Adobe Illustrator 17.0.0, SVG Export Plug-In . SVG Version: 6.00 Build 0)  -->
<!DOCTYPE svg PUBLIC "-//W3C//DTD SVG 1.1//EN" "http://www.w3.org/Graphics/SVG/1.1/DTD/svg11.dtd">
<svg version="1.1" id="Layer_1" xmlns="http://www.w3.org/2000/svg" xmlns:xlink="http://www.w3.org/1999/xlink" x="0px" y="0px"
	 width="49.68px" height="50px" viewBox="0.46 0 49.68 50" enable-background="new 0.46 0 49.68 50" xml:space="preserve">
<path fill="#000000" d="M40.788,12.729c-0.191-1.846-1.721-3.228-3.58-3.229c-7.935-0.001-15.871-0.001-23.807,0.002
	c-0.217,0-0.438,0.016-0.648,0.057c-1.758,0.335-2.952,1.789-2.952,3.578c0,3.956,0,7.912,0,11.868c0,3.948,0,7.896,0.002,11.845
	c0,0.2,0.015,0.402,0.04,0.602c0.23,1.717,1.755,3.048,3.49,3.049c7.979,0,15.959,0,23.937-0.001c0.139,0,0.273-0.008,0.41-0.023
	c1.753-0.205,3.116-1.737,3.116-3.502c0.002-7.98,0.002-15.96,0-23.939C40.799,12.931,40.801,12.83,40.788,12.729z M25.3,19.041
	c3.294-0.001,5.96,2.661,5.964,5.958c0.004,3.295-2.659,5.962-5.954,5.964c-3.302,0.001-5.972-2.668-5.968-5.968
	C19.346,21.71,22.014,19.042,25.3,19.041z M37.23,22.78c0,4.282,0,8.563,0,12.847c0,0.807-0.49,1.301-1.296,1.301
	c-6.622,0-13.246,0-19.87,0c-0.477,0-0.951,0.002-1.429,0c-0.747-0.001-1.254-0.509-1.254-1.255c-0.001-4.302,0-8.604,0-12.907
	c0-0.043,0-0.087,0-0.138c0.901,0,1.791,0,2.69,0c-0.602,2.429-0.326,4.753,0.863,6.951c0.869,1.604,2.115,2.851,3.704,3.748
	c3.138,1.771,7.042,1.604,10.03-0.438c1.657-1.134,2.85-2.642,3.559-4.52c0.709-1.875,0.801-3.789,0.307-5.744
	c0.9,0,1.789,0,2.693,0C37.23,22.678,37.23,22.728,37.23,22.78z M37.23,17.821c-0.002,0.705-0.521,1.219-1.229,1.22
	c-0.008,0-0.018,0-0.024,0c-0.575,0-1.153,0-1.731,0c-0.588,0-1.178,0.001-1.766-0.001c-0.68,0-1.207-0.507-1.212-1.186
	c-0.008-1.195-0.008-2.39,0-3.583c0.005-0.687,0.53-1.19,1.22-1.191c1.176-0.001,2.35-0.001,3.524,0
	c0.696,0.001,1.216,0.518,1.218,1.218C37.232,15.473,37.232,16.647,37.23,17.821z"/>
</svg>
