<?xml version="1.0" encoding="utf-8"?>
<!-- Generator: Adobe Illustrator 17.0.0, SVG Export Plug-In . SVG Version: 6.00 Build 0)  -->
<!DOCTYPE svg PUBLIC "-//W3C//DTD SVG 1.1//EN" "http://www.w3.org/Graphics/SVG/1.1/DTD/svg11.dtd">
<svg version="1.1" id="Layer_1" xmlns="http://www.w3.org/2000/svg" xmlns:xlink="http://www.w3.org/1999/xlink" x="0px" y="0px"
	 width="25.334px" height="22.417px" viewBox="0 0 25.334 22.417" enable-background="new 0 0 25.334 22.417" xml:space="preserve">
<path fill="none" stroke="#C1C1C0" stroke-width="2" stroke-linecap="round" stroke-linejoin="round" stroke-miterlimit="10" d="
	M17.631,1c-1.968,0-3.738,0.849-4.964,2.199C11.441,1.849,9.671,1,7.703,1C4.001,1,1,4.002,1,7.703c0,1.969,0.713,3.621,2.063,4.847
	l0.124,0.118l7.292,7.292c0.729,0.729,1.458,1.458,2.188,1.458c0.729,0,1.459-0.729,2.188-1.458l7.13-7.143l0.151-0.149
	c1.351-1.226,2.198-2.996,2.198-4.964C24.334,4.002,21.333,1,17.631,1z"/>
</svg>
