<?xml version="1.0" encoding="utf-8"?>
<!-- Generator: Adobe Illustrator 17.0.0, SVG Export Plug-In . SVG Version: 6.00 Build 0)  -->
<!DOCTYPE svg PUBLIC "-//W3C//DTD SVG 1.1//EN" "http://www.w3.org/Graphics/SVG/1.1/DTD/svg11.dtd">
<svg version="1.1" id="Icons" xmlns="http://www.w3.org/2000/svg" xmlns:xlink="http://www.w3.org/1999/xlink" x="0px" y="0px"
	 width="15.792px" height="15.792px" viewBox="0 0 15.792 15.792" enable-background="new 0 0 15.792 15.792" xml:space="preserve">
<path d="M15.647,13.525l-2.755-2.755C13.59,9.682,14,8.39,14,7c0-3.866-3.134-7-7-7S0,3.134,0,7s3.134,7,7,7
	c1.39,0,2.681-0.41,3.77-1.108l2.754,2.755c0.194,0.194,0.513,0.194,0.707,0l1.415-1.414C15.841,14.037,15.841,13.719,15.647,13.525
	z M7,12c-2.757,0-5-2.243-5-5s2.243-5,5-5c2.757,0,5,2.243,5,5S9.757,12,7,12z"/>
</svg>
