<?xml version="1.0" encoding="utf-8"?>
<!-- Generator: Adobe Illustrator 17.0.0, SVG Export Plug-In . SVG Version: 6.00 Build 0)  -->
<!DOCTYPE svg PUBLIC "-//W3C//DTD SVG 1.1//EN" "http://www.w3.org/Graphics/SVG/1.1/DTD/svg11.dtd">
<svg version="1.1" id="Слой_1" xmlns="http://www.w3.org/2000/svg" xmlns:xlink="http://www.w3.org/1999/xlink" x="0px" y="0px"
	 width="24px" height="19px" viewBox="0 0 24 19" enable-background="new 0 0 24 19" xml:space="preserve">
<path fill-rule="evenodd" clip-rule="evenodd" fill="#000000" d="M1.5,0h21C23.329,0,24,0.672,24,1.5S23.329,3,22.5,3h-21
	C0.672,3,0,2.329,0,1.5S0.672,0,1.5,0z"/>
<path fill-rule="evenodd" clip-rule="evenodd" fill="#000000" d="M1.5,8h21C23.329,8,24,8.672,24,9.5c0,0.828-0.672,1.5-1.5,1.5h-21
	C0.672,11,0,10.328,0,9.5C0,8.672,0.672,8,1.5,8z"/>
<path fill-rule="evenodd" clip-rule="evenodd" fill="#000000" d="M1.5,16h21c0.829,0,1.5,0.671,1.5,1.5S23.329,19,22.5,19h-21
	C0.672,19,0,18.329,0,17.5S0.672,16,1.5,16z"/>
</svg>
