<?xml version="1.0" encoding="utf-8"?>
<!-- Generator: Adobe Illustrator 17.0.0, SVG Export Plug-In . SVG Version: 6.00 Build 0)  -->
<!DOCTYPE svg PUBLIC "-//W3C//DTD SVG 1.1//EN" "http://www.w3.org/Graphics/SVG/1.1/DTD/svg11.dtd">
<svg version="1.1" id="Layer_1" xmlns="http://www.w3.org/2000/svg" xmlns:xlink="http://www.w3.org/1999/xlink" x="0px" y="0px"
	 width="145.947px" height="47.11px" viewBox="0 0 145.947 47.11" enable-background="new 0 0 145.947 47.11" xml:space="preserve">
<path fill-rule="evenodd" clip-rule="evenodd" fill="#bbb0a3" d="M22.966,37.465c0,0-6.452,1.535-13.191-5.158
	c-4.429-4.398-5.463-11.313-2.826-16.726c2.02-4.146,6.181-7.488,11.01-8.404c11.134-2.109,22.58,8.635,24.537,16.945
	c0.58,2.467,0.236,4.943,0.059,6.613c-0.423,3.953-1.86,5.326-1.86,5.326s1.996,0.867,4.146-0.313
	c2.15-1.18,2.279-2.072,2.279-2.072s-0.787,5.889,2.194,9.447c2.984,3.56,4.912,3.986,4.912,3.986s2.095-2.199,3.753-5.123
	c1.658-2.926,1.773-4.035,1.773-4.035s11.48,8.102,28.729,5.748c17.25-2.354,23.041-11.73,32.035-15.596
	C129.605,24.202,134.84,26,134.84,26l-3.639-8.307c0,0,2.531,0.332,3.613-0.965c1.08-1.301,1.662-3.041,1.662-3.041
	s3.846,0.676,7.164-1.809c3.32-2.482,2.08-5.779,2.08-5.779s-3.939,3.289-7.09,1.58c-3.174-1.723-6.254-3.318-8.738-2.566
	c-2.484,0.75-3.295,2.82-3.295,2.82s-1.791-3.625-4.553-3.918c-2.762-0.293-5.918,1.115-6.789,3.027
	c-2.49-1.731-5.486-5.162-12.016-1.875C97.596,8.01,99.236,15.44,99.236,15.44s-3.326-1.682-6.31,0.43
	c-2.988,2.111-5.19,5.586-5.422,9.506c0,0-0.109-2.031-1.111-4.191c-1.004-2.16-1.963-3.525-1.963-3.525s-0.857,8.148-7.07,11.141
	c-6.217,2.996-12.453-0.34-12.453-0.34s1.482-0.434,3.531-1.873c2.049-1.439,2.324-2.873,2.324-2.873s-5.201,1.504-11.033,0.096
	c-7.532-1.82-14.541-7.264-19.675-11.01c-5.256-3.834-11.459-7.008-12.456-7.562c2.938,0.516,9.032,3.149,15.919,7.646
	c6.888,4.498,13.4,9.664,21.246,8.775c4.859-0.551,5.01-1.488,7.996-1.961c2.986-0.473,3.166-0.305,3.678-0.037
	c-0.654-1.82-1.664-2.697-3.193-4.141c1.941,0.652,3.637,0.688,6.168-1.619c1.146-1.045,1.705-1.779,2.631-2.416
	c1.871-1.283,3.896-1.859,5.865-1.609c2.943,0.371,3.57,0.725,3.57,0.725S85.9,1.047,78.297,2.579
	c-3.424,0.69-5.07,2.258-6.293,3.598c-1.5,1.644-2.164,2.973-2.164,2.973s0.352-2.5,0.117-3.549
	c-0.232-1.051-0.434-1.482-0.434-1.482s-1.691,4.785-6.51,5.754c-0.858,0.174-3.146,0.289-5.02-0.117
	C52.964,8.663,46.125,5.7,39.093,3.37c-5.054-1.676-10.634-2.98-13.722-3.238c-3.604-0.303-7.986-0.154-11.892,1.217
	C2.491,5.206-2.667,17.452,1.364,28.073c3.695,9.738,15.972,14.947,25.626,11c4.805-1.967,8.237-5.916,8.35-9.711
	c0.102-3.395-0.641-5.371-2.264-7.063c-1.9-1.98-4.975-3.441-8.601-2.721c-5.732,1.139-7.77,6.856-6.816,11.43
	C18.272,33.94,20.142,35.957,22.966,37.465L22.966,37.465z M32.199,13.76c-0.481-0.266-2.89-1.691-6.036-2.361
	c-2.295-0.488-5.192-0.418-6.987,0.027c-3.479,0.863-5.92,3.15-7.094,6.23c-0.856,2.248-1.271,4.848,0.226,7.973
	c1.45,3.029,3.382,4.301,3.382,4.301s-0.098,1.33,1.52,3.691c1.617,2.361,3.826,3.068,4.127,3.184
	c-5.52-0.428-12.042-5.43-13.712-10.74c-2.856-9.086,4.51-20.088,17.409-16.047C28.416,11.079,31.12,13.032,32.199,13.76
	L32.199,13.76z M25.429,35.12c0.195,0.334,7.138,0.459,7.443-5.797c0.304-6.256-6.158-6.695-6.706-6.576
	c2.816,0.824,5.383,3.73,4.646,7.162C30.075,33.342,27.477,34.852,25.429,35.12L25.429,35.12z M135.682,9.219
	c-0.98-0.858-2.109-1.496-3.182-1.483c-2.541,0.035-4.744,2.504-3.736,5.543c-2.152-2.92,0.584-7.174,4.152-6.293
	C134.984,7.497,135.682,9.219,135.682,9.219L135.682,9.219z M111.004,27.092c0,0,6.67-5.648,4.82-12.15
	c-2.082-7.32-8.461-7.205-10.273-6.311c-1.811,0.897-2.686,2.715-2.686,2.715s1.971-1.996,4.695-2.068
	c2.117-0.059,4.881,1.316,6.303,3.951C117.113,19.254,111.004,27.092,111.004,27.092L111.004,27.092z M131,23.459
	c0,0-4.992-1.283-8.922-0.139c-3.928,1.146-4.893,2.197-6.15,2.709c-1.258,0.514-1.689,0.338-0.201-0.854
	c1.488-1.191,4.666-2.695,7.176-3.01C125.48,21.846,128.711,22.077,131,23.459L131,23.459z M58.68,32.872
	c0,0,13.223,8.576,26.02,7.707c12.797-0.871,18.178-5.414,20.293-6.828c2.117-1.414,3.809-4.203,3.809-4.203
	s-4.703,4.074-11.617,6.58c-6.916,2.506-14.307,4.416-23.918,2.184C63.654,36.079,58.68,32.872,58.68,32.872L58.68,32.872z"/>
</svg>
