<?xml version="1.0" encoding="utf-8"?>
<!-- Generator: Adobe Illustrator 17.0.0, SVG Export Plug-In . SVG Version: 6.00 Build 0)  -->
<!DOCTYPE svg PUBLIC "-//W3C//DTD SVG 1.1//EN" "http://www.w3.org/Graphics/SVG/1.1/DTD/svg11.dtd">
<svg version="1.1" id="Layer_1" xmlns="http://www.w3.org/2000/svg" xmlns:xlink="http://www.w3.org/1999/xlink" x="0px" y="0px"
	 width="415px" height="415px" viewBox="0 0 415 415" enable-background="new 0 0 415 415" xml:space="preserve">
<g>
	<path fill="#CB4D3C" d="M141.184,245.562c-31.898-0.345-60.475,19.445-60.475,43.218c0,24.257,23.039,44.449,54.938,44.449
		c44.847,0,60.477-18.955,60.477-43.212c0-2.924-0.357-5.786-1.018-8.57c-3.504-13.723-15.926-20.528-33.241-32.57
		C155.565,246.838,148.629,245.64,141.184,245.562z"/>
	<path fill="#CB4D3C" d="M130.643,89.904c-21.408-0.64-35.765,20.882-32.069,49.001c3.696,28.115,24.044,51.429,45.458,52.069
		c21.404,0.64,35.765-21.631,32.071-49.75C172.405,113.109,152.049,90.548,130.643,89.904z"/>
	<path fill="#CB4D3C" d="M0,0v415h415V0H0z M205.976,139.588c0,17.564-9.727,32.66-23.472,43.4
		c-13.408,10.477-15.951,14.866-15.951,23.774c0,7.601,14.365,20.533,21.877,25.851c21.957,15.528,29.059,29.943,29.059,54.014
		c0,30.019-29.059,59.872-81.672,59.872c-46.151,0-85.092-18.778-85.092-48.795c0-30.479,35.521-59.872,81.671-59.872
		c5.026,0,9.636-0.138,14.407-0.138c-6.316-6.145-11.311-13.674-11.311-22.96c0-5.507,1.759-10.812,4.219-15.521
		c-2.508,0.181-5.069,0.232-7.705,0.232c-37.905,0-63.304-26.968-63.304-60.381c0-32.698,35.066-60.926,72.326-60.926
		c20.775,0,83.108,0,83.108,0l-18.599,13.445h-26.352C196.665,98.305,205.976,118.684,205.976,139.588z M368.346,145.36h-53.776
		v53.776h-13.444V145.36h-53.777v-13.444h53.777V78.139h13.444v53.777h53.776V145.36z"/>
</g>
</svg>
