<?xml version="1.0" encoding="utf-8"?>
<!-- Generator: Adobe Illustrator 17.0.0, SVG Export Plug-In . SVG Version: 6.00 Build 0)  -->
<!DOCTYPE svg PUBLIC "-//W3C//DTD SVG 1.1//EN" "http://www.w3.org/Graphics/SVG/1.1/DTD/svg11.dtd">
<svg version="1.1" id="Layer_1" xmlns="http://www.w3.org/2000/svg" xmlns:xlink="http://www.w3.org/1999/xlink" x="0px" y="0px"
	 width="415px" height="414.996px" viewBox="0 0 415 414.996" enable-background="new 0 0 415 414.996" xml:space="preserve">
<path fill="#50A3BF" d="M0,0v414.996h415V0H0z M318.218,155.203c0.104,2.333,0.157,4.679,0.157,7.037
	c0,71.877-54.71,154.758-154.757,154.758c-30.716,0-59.307-9.005-83.378-24.439c4.255,0.503,8.585,0.762,12.975,0.762
	c25.483,0,48.938-8.697,67.552-23.287c-23.801-0.437-43.889-16.163-50.811-37.771c3.322,0.635,6.729,0.977,10.234,0.977
	c4.961,0,9.766-0.666,14.33-1.908c-24.883-5-43.632-26.982-43.632-53.335c0-0.23,0-0.457,0.005-0.684
	c7.333,4.073,15.72,6.52,24.637,6.803c-14.596-9.754-24.197-26.402-24.197-45.273c0-9.968,2.682-19.312,7.364-27.345
	c26.827,32.908,66.905,54.562,112.11,56.831c-0.928-3.981-1.408-8.133-1.408-12.396c0-30.038,24.354-54.391,54.393-54.391
	c15.643,0,29.78,6.605,39.701,17.176c12.391-2.44,24.03-6.966,34.541-13.199c-4.062,12.702-12.687,23.361-23.915,30.093
	c11.002-1.315,21.485-4.238,31.239-8.565C338.066,137.955,328.846,147.534,318.218,155.203z"/>
</svg>
