<?xml version="1.0" encoding="utf-8"?>
<!-- Generator: Adobe Illustrator 17.0.0, SVG Export Plug-In . SVG Version: 6.00 Build 0)  -->
<!DOCTYPE svg PUBLIC "-//W3C//DTD SVG 1.1//EN" "http://www.w3.org/Graphics/SVG/1.1/DTD/svg11.dtd">
<svg version="1.1" id="Layer_1" xmlns="http://www.w3.org/2000/svg" xmlns:xlink="http://www.w3.org/1999/xlink" x="0px" y="0px"
	 width="414.999px" height="414.996px" viewBox="0 0 414.999 414.996" enable-background="new 0 0 414.999 414.996"
	 xml:space="preserve">
<g>
	<path fill="#41638A" d="M177.564,179.946c25.371,0,49.211,3.342,49.211-24.167c0-25.467-26.97-21.271-49.229-21.271l0.024,17.271
		L177.564,179.946z"/>
	<path fill="#41638A" d="M0,0v414.996h414.999V0H0z M217.546,311.697h-93.918l0.418-216.903h98.5
		c32.411,0,60.002,15.878,59.973,47.985c-0.025,26.809-9.732,37.237-29.675,49.029c1.704,1.405,13.132,4.814,16.97,6.705
		c6.145,3.028,9.76,6.09,13.803,10.2c11.314,11.504,13.424,22.021,13.424,40.066C297.04,290.648,256.544,311.697,217.546,311.697z"
		/>
	<path fill="#41638A" d="M177.571,217.807l-0.016,53.963c27.8,0,62.145,4.58,62.748-26.982
		C240.935,211.865,205.023,217.807,177.571,217.807z"/>
</g>
</svg>
