<?xml version="1.0" encoding="utf-8"?>
<!-- Generator: Adobe Illustrator 17.0.0, SVG Export Plug-In . SVG Version: 6.00 Build 0)  -->
<!DOCTYPE svg PUBLIC "-//W3C//DTD SVG 1.1//EN" "http://www.w3.org/Graphics/SVG/1.1/DTD/svg11.dtd">
<svg version="1.1" id="Layer_1" xmlns="http://www.w3.org/2000/svg" xmlns:xlink="http://www.w3.org/1999/xlink" x="0px" y="0px"
	 width="415px" height="414.996px" viewBox="0 0 415 414.996" enable-background="new 0 0 415 414.996" xml:space="preserve">
<g>
	<circle fill="#D37034" cx="207.501" cy="134.485" r="36.819"/>
	<path fill="#D37034" d="M0,0v414.996h415V0H0z M207.501,59.646c41.332,0,74.84,33.508,74.84,74.839
		c0,41.334-33.508,74.84-74.84,74.84c-41.334,0-74.841-33.507-74.841-74.84C132.66,93.153,166.167,59.646,207.501,59.646z
		 M274.031,252.464c-15.909,10.213-37.716,14.08-51.961,15.547l11.919,11.918l44.101,44.103c6.701,6.701,6.703,17.566,0,24.269
		l-2.021,2.022c-6.701,6.701-17.568,6.701-24.269,0c-11.21-11.209-27.364-27.365-44.102-44.101l-44.102,44.102
		c-3.343,3.342-7.722,5.018-12.104,5.025h-0.063c-4.382-0.008-8.76-1.683-12.104-5.025l-2.021-2.021
		c-6.702-6.703-6.702-17.569,0-24.27c11.209-11.21,27.365-27.366,44.102-44.103l11.882-11.882
		c-14.234-1.438-36.277-5.286-52.319-15.584c-18.782-12.056-27.105-19.21-19.738-34.007c4.225-8.487,15.928-15.549,31.48-3.295
		c21.021,16.565,54.789,16.565,54.789,16.565s33.766,0,54.787-16.565c15.553-12.253,27.256-5.192,31.482,3.295
		C301.135,233.255,292.813,240.408,274.031,252.464z"/>
</g>
</svg>
