<?xml version="1.0" encoding="utf-8"?>
<!-- Generator: Adobe Illustrator 17.0.0, SVG Export Plug-In . SVG Version: 6.00 Build 0)  -->
<!DOCTYPE svg PUBLIC "-//W3C//DTD SVG 1.1//EN" "http://www.w3.org/Graphics/SVG/1.1/DTD/svg11.dtd">
<svg version="1.1" id="Layer_1" xmlns="http://www.w3.org/2000/svg" xmlns:xlink="http://www.w3.org/1999/xlink" x="0px" y="0px"
	 width="415px" height="414.996px" viewBox="0 0 415 414.996" enable-background="new 0 0 415 414.996" xml:space="preserve">
<path fill="#EFC42C" d="M0,0v414.996h415V0H0z M336.807,217.273l-68.742,114.57c-4.534,8.177-6.246,8.037-15.11,8.037H107.755
	c-18.129,0-32.964-14.834-32.964-32.964V108.079c0-18.13,14.834-32.963,32.964-32.963h145.341
	c14.246,0.098,11.987-0.359,19.658,12.926l63.736,108.897C341.811,204.057,340.973,210.396,336.807,217.273z"/>
<path fill="#C5282C" d="M243.929,112.531h-28.871c-28.355,0-52.413,21.59-52.413,63.503c0,25.145,11.652,43.686,32.409,52.83
	l-38.735,70.106c-1.266,2.287,0,4.061,2.02,4.061h17.977c1.52,0,2.533-0.507,3.04-1.774l35.195-68.839h12.667v68.839
	c0,0.76,0.759,1.774,1.765,1.774h15.707c1.518,0,2.026-0.76,2.026-2.026V115.073C246.716,113.291,245.701,112.531,243.929,112.531
	L243.929,112.531z M227.218,216.166L227.218,216.166h-10.64c-16.711,0-32.916-12.191-32.916-42.674
	c0-31.755,15.191-44.706,30.636-44.706h12.92V216.166z"/>
</svg>
