<?xml version="1.0" encoding="utf-8"?>
<!-- Generator: Adobe Illustrator 17.0.0, SVG Export Plug-In . SVG Version: 6.00 Build 0)  -->
<!DOCTYPE svg PUBLIC "-//W3C//DTD SVG 1.1//EN" "http://www.w3.org/Graphics/SVG/1.1/DTD/svg11.dtd">
<svg version="1.1" id="Layer_1" xmlns="http://www.w3.org/2000/svg" xmlns:xlink="http://www.w3.org/1999/xlink" x="0px" y="0px"
	 width="414.999px" height="414.996px" viewBox="0 0 414.999 414.996" enable-background="new 0 0 414.999 414.996"
	 xml:space="preserve">
<rect x="0" y="0" fill="#5987C5" width="414.999" height="414.996"/>
<path fill-rule="evenodd" clip-rule="evenodd" fill="#E4A834" d="M203.425,141.6c17.953,0,34.831,7.933,47.223,20.355v0.049
	c0-5.965,4.01-10.462,9.589-10.462l1.408-0.007c8.716,0,10.506,8.248,10.506,10.858l0.044,92.745
	c-0.617,6.066,6.265,9.2,10.078,5.312c14.894-15.306,32.707-78.676-9.256-115.394c-39.11-34.229-91.585-28.588-119.493-9.351
	c-29.667,20.459-48.652,65.744-30.21,108.275c20.101,46.398,77.624,60.232,111.812,46.438c17.312-6.991,25.309,16.412,7.328,24.057
	c-27.167,11.578-102.781,10.412-138.102-50.776c-23.865-41.318-22.595-114.016,40.699-151.678
	c48.42-28.813,112.257-20.832,150.753,19.371c40.237,42.024,37.889,120.722-1.358,151.329c-17.784,13.895-44.193,0.366-44.026-19.89
	l-0.183-6.622c-12.383,12.285-28.858,19.455-46.812,19.455c-35.468,0-66.677-31.213-66.677-66.673
	C136.748,173.172,167.957,141.6,203.425,141.6L203.425,141.6L203.425,141.6L203.425,141.6z M248.064,206.428
	c-1.335-25.975-20.612-41.593-43.892-41.593h-0.88c-26.863,0-41.763,21.127-41.763,45.124c0,26.873,18.025,43.849,41.662,43.849
	c26.352,0,43.68-19.304,44.934-42.138L248.064,206.428z"/>
</svg>
