<?xml version="1.0" encoding="utf-8"?>
<!-- Generator: Adobe Illustrator 17.0.0, SVG Export Plug-In . SVG Version: 6.00 Build 0)  -->
<!DOCTYPE svg PUBLIC "-//W3C//DTD SVG 1.1//EN" "http://www.w3.org/Graphics/SVG/1.1/DTD/svg11.dtd">
<svg version="1.1" id="Layer_1" xmlns="http://www.w3.org/2000/svg" xmlns:xlink="http://www.w3.org/1999/xlink" x="0px" y="0px"
	 width="282.069px" height="57.372px" viewBox="0 0 282.069 57.372" enable-background="new 0 0 282.069 57.372"
	 xml:space="preserve">
<path d="M23.592,12.658l-1.442,0.24c-0.614-2.216-1.536-3.791-2.764-4.726c-1.095-0.828-2.563-1.242-4.406-1.242
	c-2.911,0-5.194,1.148-6.85,3.444c-1.469,2.057-2.203,4.66-2.203,7.811c0,3.712,0.828,6.703,2.483,8.972
	c1.656,2.27,3.819,3.405,6.489,3.405c1.896,0,3.485-0.547,4.767-1.643c1.149-0.988,2.27-2.603,3.365-4.846l1.442,0.28
	c-0.347,1.469-0.667,2.697-0.961,3.685c-0.4,1.362-0.761,2.43-1.082,3.204c-1.442,0.374-2.824,0.654-4.146,0.841
	s-2.437,0.281-3.345,0.281c-4.967,0-8.785-1.402-11.456-4.206C1.162,25.728,0,22.711,0,19.106c0-4.006,1.449-7.337,4.346-9.994
	c2.897-2.657,6.669-3.985,11.315-3.985c1.495,0,2.977,0.134,4.446,0.4c1.468,0.348,2.39,0.561,2.764,0.641
	c0.16,1.068,0.294,2.136,0.4,3.204C23.379,10.441,23.485,11.536,23.592,12.658L23.592,12.658z M51.19,5.728h8.131v1.281
	c-1.576,0.134-2.497,0.415-2.764,0.841c-0.267,0.427-0.401,1.763-0.401,4.006l0.2,13.779c0,2.19,0.161,3.511,0.481,3.965
	c0.32,0.454,1.269,0.747,2.844,0.881v1.282H48.307v-1.282c1.495-0.134,2.376-0.414,2.644-0.841c0.267-0.427,0.4-1.762,0.4-4.005
	v-14.98h-0.16l-8.892,20.668h-1.362l-8.251-19.667l-0.561,9.893v4.286c0,0.507,0,0.982,0,1.422c0,0.441,0.034,0.935,0.101,1.482
	c0.066,0.547,0.36,0.975,0.881,1.281c0.521,0.308,1.422,0.461,2.704,0.461v1.282h-9.493v-1.282c0.955,0,1.642-0.147,2.05-0.44
	c0.413-0.294,0.681-0.788,0.801-1.482c0.114-0.695,0.227-1.349,0.334-1.963c0.294-1.869,0.441-3.685,0.441-5.448l0.581-8.091
	c0-2.777-0.134-4.446-0.4-5.007c-0.267-0.561-1.215-0.908-2.844-1.041V5.728h8.051L43.3,23.752L51.19,5.728L51.19,5.728z
	 M76.265,5.127c3.631,0,6.676,1.242,9.132,3.726c2.457,2.483,3.685,5.648,3.685,9.493c0,4.192-1.288,7.577-3.865,10.154
	c-2.577,2.577-5.881,3.866-9.914,3.866c-3.872,0-7.023-1.269-9.453-3.805c-2.43-2.537-3.645-5.675-3.645-9.413
	c0-3.632,1.122-6.77,3.365-9.413C68.188,6.663,71.752,5.127,76.265,5.127L76.265,5.127z M83.154,19.627
	c0-4.005-0.688-7.123-2.063-9.352c-1.375-2.23-3.331-3.345-5.868-3.345c-2.11,0-3.819,0.995-5.128,2.984
	c-1.308,1.989-1.962,4.693-1.962,8.111c0,3.658,0.701,6.662,2.103,9.012c1.402,2.35,3.398,3.525,5.988,3.525
	c2.136,0,3.825-0.921,5.067-2.764C82.534,25.956,83.154,23.232,83.154,19.627L83.154,19.627z M93.689,5.728h20.148v1.281
	c-1.469,0-2.383,0.261-2.744,0.781c-0.361,0.521-0.541,1.876-0.541,4.066v13.779c0,2.163,0.173,3.511,0.521,4.045
	c0.348,0.534,1.269,0.801,2.764,0.801v1.282h-11.776v-1.282c1.469,0,2.383-0.26,2.744-0.781c0.36-0.521,0.541-1.876,0.541-4.066
	V10.254c0-1.388-0.061-2.203-0.181-2.443c-0.12-0.241-0.567-0.361-1.341-0.361h-2.724c-1.068,0-1.702,0.081-1.902,0.241
	c-0.201,0.16-0.301,0.641-0.301,1.442c0,5.047-0.24,9.239-0.721,12.577c-0.587,4.086-1.549,7.01-2.884,8.772
	c-0.962,1.282-2.07,1.922-3.325,1.922c-0.481,0-0.881-0.026-1.202-0.08c-0.561-0.133-0.988-0.227-1.282-0.28v-1.082
	c1.015-0.4,1.869-0.948,2.564-1.642c0.587-0.587,1.228-1.456,1.922-2.604c0.961-1.602,1.689-3.959,2.183-7.07
	c0.494-3.111,0.741-6.562,0.741-10.354c0-0.962-0.194-1.583-0.581-1.863c-0.387-0.28-1.262-0.421-2.624-0.421V5.728L93.689,5.728z
	 M119.845,25.635V11.856c0-2.163-0.174-3.512-0.521-4.045c-0.347-0.534-1.242-0.802-2.684-0.802V5.728h18.385l0.441,6.249
	l-1.442,0.12c-0.4-1.843-0.895-3.064-1.482-3.665c-0.587-0.601-2.03-0.901-4.326-0.901h-1.563c-0.774,0-1.235,0.059-1.382,0.18
	c-0.147,0.12-0.22,0.528-0.22,1.222v8.212h2.924c1.709,0,2.744-0.153,3.104-0.461c0.36-0.307,0.648-1.275,0.861-2.904h1.442v8.773
	h-1.442c-0.187-1.576-0.474-2.53-0.861-2.864c-0.387-0.334-1.422-0.501-3.104-0.501h-2.924v6.289c0,1.522,0.06,2.543,0.18,3.064
	c0.12,0.521,0.394,0.888,0.821,1.102c0.32,0.134,0.714,0.22,1.182,0.26c0.467,0.04,1.208,0.06,2.223,0.06
	c1.041,0,1.963-0.087,2.764-0.261c0.801-0.173,1.402-0.487,1.802-0.941c0.641-0.694,1.295-2.029,1.963-4.005l1.442,0.281
	c-0.16,1.015-0.387,2.25-0.681,3.705c-0.294,1.455-0.534,2.463-0.721,3.024H116.24v-1.282c1.629,0,2.637-0.26,3.024-0.781
	C119.651,29.18,119.845,27.825,119.845,25.635L119.845,25.635z M147.563,16.943h11.096v-5.087c0-2.19-0.174-3.545-0.521-4.066
	c-0.348-0.52-1.281-0.781-2.805-0.781V5.728h11.937v1.281c-1.543,0-2.49,0.268-2.857,0.802c-0.367,0.534-0.547,1.882-0.547,4.045
	v13.779c0,2.19,0.18,3.545,0.541,4.066c0.359,0.521,1.314,0.781,2.863,0.781v1.282h-12.258v-1.282c1.629,0,2.645-0.267,3.045-0.801
	c0.4-0.534,0.602-1.882,0.602-4.045v-6.569h-11.096v6.569c0,2.19,0.18,3.545,0.541,4.066c0.359,0.521,1.314,0.781,2.863,0.781v1.282
	h-12.016v-1.282c1.521,0,2.47-0.267,2.844-0.801c0.373-0.534,0.561-1.882,0.561-4.045V11.856c0-2.163-0.188-3.512-0.561-4.045
	c-0.374-0.534-1.376-0.802-3.004-0.802V5.728h12.017v1.281c-1.469,0-2.377,0.261-2.725,0.781c-0.346,0.521-0.52,1.876-0.52,4.066
	V16.943L147.563,16.943z M193.667,12.658l-1.441,0.24c-0.615-2.216-1.537-3.791-2.766-4.726c-1.094-0.828-2.563-1.242-4.404-1.242
	c-2.912,0-5.195,1.148-6.85,3.444c-1.469,2.057-2.203,4.66-2.203,7.811c0,3.712,0.828,6.703,2.482,8.972
	c1.656,2.27,3.818,3.405,6.49,3.405c1.895,0,3.484-0.547,4.766-1.643c1.148-0.988,2.269-2.603,3.365-4.846l1.441,0.28
	c-0.348,1.469-0.668,2.697-0.961,3.685c-0.4,1.362-0.762,2.43-1.082,3.204c-1.441,0.374-2.824,0.654-4.146,0.841
	c-1.32,0.187-2.436,0.281-3.344,0.281c-4.967,0-8.785-1.402-11.455-4.206c-2.324-2.43-3.486-5.448-3.486-9.052
	c0-4.006,1.449-7.337,4.348-9.994c2.896-2.657,6.668-3.985,11.314-3.985c1.496,0,2.979,0.134,4.447,0.4
	c1.469,0.348,2.389,0.561,2.764,0.641c0.16,1.068,0.293,2.136,0.4,3.204C193.454,10.441,193.56,11.536,193.667,12.658
	L193.667,12.658z M199.636,25.635V11.856c0-2.163-0.174-3.512-0.521-4.045c-0.348-0.534-1.268-0.802-2.764-0.802V5.728h11.695v1.281
	c-1.469,0-2.383,0.261-2.742,0.781c-0.361,0.521-0.541,1.876-0.541,4.066v5.087c1.254,0,2.215-0.1,2.883-0.301
	c0.668-0.2,1.35-0.607,2.043-1.221c0.936-0.855,2.164-3.031,3.686-6.529c0.56-1.335,1.195-2.296,1.902-2.884
	s1.529-0.881,2.463-0.881c1.523,0,2.283,0.507,2.283,1.523c0,0.534-0.139,0.941-0.42,1.222c-0.281,0.28-0.635,0.42-1.062,0.42h-0.92
	c-0.855,0-1.529,0.3-2.023,0.901c-0.494,0.601-1.314,2.049-2.463,4.346c-0.428,0.854-0.936,1.602-1.521,2.243
	c-0.428,0.454-1.096,1.002-2.004,1.642c0.961,0.347,1.869,0.875,2.725,1.582c0.853,0.708,1.562,1.596,2.123,2.664
	c0.186,0.374,0.693,1.455,1.521,3.244c0.508,1.095,0.908,1.95,1.201,2.563c0.588,1.149,1.154,1.91,1.703,2.283
	c0.547,0.374,1.328,0.614,2.344,0.721v1.282h-4.607c-1.336,0-2.391-0.307-3.164-0.921c-0.641-0.507-1.248-1.395-1.822-2.664
	c-0.574-1.268-1.316-3.171-2.223-5.708c-0.615-1.682-1.322-2.817-2.123-3.405c-0.615-0.454-1.457-0.681-2.523-0.681v7.25
	c0,2.163,0.172,3.511,0.52,4.045c0.348,0.534,1.27,0.801,2.764,0.801v1.282h-11.695v-1.282c1.469,0,2.383-0.26,2.744-0.781
	C199.454,29.18,199.636,27.825,199.636,25.635L199.636,25.635z M226.673,25.635V11.856c0-2.163-0.188-3.512-0.561-4.045
	c-0.375-0.534-1.377-0.802-3.006-0.802V5.728h11.857v1.281c-1.469,0-2.377,0.261-2.725,0.781c-0.346,0.521-0.52,1.876-0.52,4.066
	V24.5l10.613-14.247c0.428-0.614,0.642-1.108,0.642-1.482c0-0.641-0.174-1.068-0.521-1.282c-0.348-0.213-1.041-0.374-2.084-0.481
	V5.728h11.057v1.281c-1.543,0-2.49,0.254-2.857,0.761c-0.367,0.507-0.547,1.763-0.547,3.765v14.1c0,2.19,0.18,3.545,0.539,4.066
	c0.361,0.521,1.316,0.781,2.865,0.781v1.282h-12.098v-1.282c1.629,0,2.645-0.267,3.045-0.801c0.4-0.534,0.601-1.882,0.601-4.045
	V12.577h-0.201l-10.535,14.34c-0.24,0.267-0.387,0.514-0.439,0.741c-0.055,0.227-0.08,0.581-0.08,1.062
	c0,0.614,0.166,1.021,0.5,1.222c0.334,0.2,1.035,0.38,2.104,0.541v1.282h-11.057v-1.282c1.524,0,2.471-0.267,2.846-0.801
	C226.485,29.146,226.673,27.798,226.673,25.635L226.673,25.635z M268.13,4.887c-1.709,0-3.092-0.301-4.146-0.901
	c-1.055-0.6-1.582-1.422-1.582-2.463c0-0.427,0.127-0.788,0.381-1.082c0.254-0.293,0.635-0.44,1.141-0.44
	c0.615,0,1.068,0.2,1.363,0.601c0.213,0.267,0.359,0.788,0.439,1.562c0.08,0.775,0.881,1.162,2.404,1.162
	c1.522,0,2.322-0.38,2.402-1.141s0.227-1.275,0.441-1.542C271.294,0.214,271.747,0,272.335,0c0.453,0,0.82,0.154,1.102,0.46
	c0.281,0.307,0.42,0.661,0.42,1.062c0,1.041-0.52,1.863-1.563,2.463C271.253,4.586,269.864,4.887,268.13,4.887L268.13,4.887z
	 M257.314,25.635V11.856c0-2.163-0.186-3.512-0.561-4.045c-0.373-0.534-1.375-0.802-3.004-0.802V5.728h11.857v1.281
	c-1.469,0-2.377,0.261-2.725,0.781c-0.348,0.521-0.52,1.876-0.52,4.066V24.5l10.613-14.247c0.428-0.614,0.641-1.108,0.641-1.482
	c0-0.641-0.174-1.068-0.52-1.282c-0.348-0.213-1.043-0.374-2.084-0.481V5.728h11.057v1.281c-1.543,0-2.49,0.254-2.857,0.761
	c-0.367,0.507-0.549,1.763-0.549,3.765v14.1c0,2.19,0.182,3.545,0.541,4.066c0.361,0.521,1.316,0.781,2.865,0.781v1.282h-12.098
	v-1.282c1.629,0,2.645-0.267,3.045-0.801c0.4-0.534,0.6-1.882,0.6-4.045V12.577h-0.199l-10.535,14.34
	c-0.24,0.267-0.387,0.514-0.441,0.741c-0.053,0.227-0.078,0.581-0.078,1.062c0,0.614,0.166,1.021,0.5,1.222
	c0.334,0.2,1.035,0.38,2.102,0.541v1.282h-11.055v-1.282c1.523,0,2.471-0.267,2.844-0.801
	C257.128,29.146,257.314,27.798,257.314,25.635L257.314,25.635z"/>
<path d="M89.036,40.616h-5.092c-0.521,0-0.831,0.041-0.929,0.121c-0.099,0.081-0.148,0.373-0.148,0.876v11.233
	c0,1.473,0.121,2.384,0.363,2.734c0.243,0.35,0.885,0.525,1.926,0.525v0.862h-8.081v-0.862c1.023,0,1.661-0.18,1.913-0.539
	c0.251-0.359,0.377-1.266,0.377-2.721v-9.267c0-1.455-0.126-2.362-0.377-2.721c-0.252-0.359-0.925-0.539-2.021-0.539v-0.862h18.938
	v0.862c-1.037,0-1.674,0.18-1.921,0.539c-0.247,0.359-0.368,1.266-0.368,2.721v9.267c0,1.473,0.121,2.384,0.364,2.734
	c0.242,0.35,0.884,0.525,1.926,0.525v0.862h-8.243v-0.862c1.096,0,1.778-0.18,2.047-0.539c0.27-0.359,0.404-1.266,0.404-2.721
	V41.613c0-0.485-0.049-0.773-0.148-0.862C89.866,40.661,89.556,40.616,89.036,40.616L89.036,40.616z M107.489,56.968v-0.862
	l0.701-0.108c0.61-0.072,0.916-0.287,0.916-0.646c0-0.216-0.081-0.53-0.243-0.943l-1.266-3.287h-4.768
	c-0.144,0.341-0.35,0.943-0.62,1.805c-0.09,0.269-0.215,0.678-0.377,1.226c-0.162,0.547-0.242,0.929-0.242,1.145
	c0,0.413,0.368,0.655,1.104,0.727l0.673,0.081v0.862h-6.088v-0.862c0.862-0.108,1.428-0.278,1.697-0.512
	c0.341-0.305,0.745-1.05,1.212-2.236l5.442-13.847l1.32-0.377l1.778,5.011c0.701,1.976,1.266,3.556,1.697,4.742
	c0.215,0.592,0.763,2.056,1.643,4.391c0.449,1.186,0.854,1.948,1.212,2.29c0.288,0.27,0.817,0.449,1.589,0.539v0.862H107.489
	L107.489,56.968z M103.192,49.748h3.947l-1.939-5.545L103.192,49.748L103.192,49.748z M131.223,44.118l-0.97,0.162
	c-0.413-1.49-1.032-2.55-1.859-3.179c-0.736-0.557-1.724-0.835-2.963-0.835c-1.958,0-3.493,0.772-4.606,2.317
	c-0.988,1.382-1.481,3.134-1.481,5.253c0,2.497,0.557,4.508,1.67,6.035c1.114,1.526,2.568,2.29,4.364,2.29
	c1.275,0,2.344-0.368,3.206-1.104c0.772-0.665,1.527-1.751,2.263-3.26l0.97,0.188c-0.233,0.988-0.449,1.814-0.646,2.479
	c-0.269,0.916-0.512,1.634-0.727,2.155c-0.97,0.251-1.9,0.44-2.789,0.565c-0.889,0.126-1.639,0.189-2.249,0.189
	c-3.34,0-5.908-0.943-7.705-2.829c-1.563-1.634-2.344-3.664-2.344-6.088c0-2.694,0.975-4.935,2.923-6.722
	c1.949-1.787,4.486-2.68,7.611-2.68c1.005,0,2.003,0.09,2.99,0.27c0.987,0.233,1.607,0.377,1.858,0.431
	c0.108,0.719,0.198,1.437,0.27,2.155C131.079,42.627,131.15,43.364,131.223,44.118L131.223,44.118z M149.03,44.118l-0.971,0.162
	c-0.414-1.49-1.033-2.55-1.859-3.179c-0.736-0.557-1.723-0.835-2.963-0.835c-1.958,0-3.493,0.772-4.607,2.317
	c-0.988,1.382-1.482,3.134-1.482,5.253c0,2.497,0.557,4.508,1.67,6.035c1.113,1.526,2.568,2.29,4.363,2.29
	c1.275,0,2.344-0.368,3.207-1.104c0.771-0.665,1.525-1.751,2.262-3.26l0.971,0.188c-0.234,0.988-0.449,1.814-0.646,2.479
	c-0.27,0.916-0.512,1.634-0.726,2.155c-0.971,0.251-1.9,0.44-2.789,0.565c-0.889,0.126-1.639,0.189-2.25,0.189
	c-3.34,0-5.908-0.943-7.704-2.829c-1.563-1.634-2.344-3.664-2.344-6.088c0-2.694,0.974-4.935,2.923-6.722
	c1.949-1.787,4.485-2.68,7.611-2.68c1.006,0,2.002,0.09,2.99,0.27c0.986,0.233,1.607,0.377,1.857,0.431
	c0.107,0.719,0.197,1.437,0.27,2.155C148.886,42.627,148.958,43.364,149.03,44.118L149.03,44.118z M160.937,56.968v-0.862
	l0.701-0.108c0.609-0.072,0.916-0.287,0.916-0.646c0-0.216-0.082-0.53-0.242-0.943l-1.268-3.287h-4.768
	c-0.145,0.341-0.35,0.943-0.619,1.805c-0.09,0.269-0.217,0.678-0.379,1.226c-0.16,0.547-0.242,0.929-0.242,1.145
	c0,0.413,0.369,0.655,1.105,0.727l0.674,0.081v0.862h-6.09v-0.862c0.863-0.108,1.43-0.278,1.697-0.512
	c0.342-0.305,0.746-1.05,1.213-2.236l5.441-13.847l1.32-0.377l1.777,5.011c0.701,1.976,1.268,3.556,1.699,4.742
	c0.215,0.592,0.762,2.056,1.642,4.391c0.449,1.186,0.854,1.948,1.211,2.29c0.289,0.27,0.818,0.449,1.59,0.539v0.862H160.937
	L160.937,56.968z M156.64,49.748h3.947l-1.939-5.545L156.64,49.748L156.64,49.748z M183.915,43.579v3.556
	c0.846,0,1.492-0.068,1.939-0.202c0.449-0.135,0.908-0.409,1.375-0.822c0.377-0.341,0.754-0.862,1.131-1.563
	c0.324-0.593,0.773-1.544,1.348-2.855c0.377-0.934,0.803-1.607,1.279-2.021c0.477-0.413,1.027-0.62,1.656-0.62
	c1.023,0,1.537,0.341,1.537,1.024c0,0.359-0.096,0.633-0.283,0.821c-0.189,0.188-0.428,0.283-0.715,0.283h-0.727
	c-0.557,0-1.006,0.207-1.348,0.62c-0.342,0.413-0.854,1.382-1.535,2.909c-0.377,0.808-0.844,1.464-1.4,1.966
	c-0.359,0.324-0.711,0.557-1.051,0.701c0.719,0.27,1.32,0.583,1.805,0.943c0.592,0.449,1.078,1.033,1.455,1.751
	c0.197,0.359,0.475,0.934,0.834,1.724c0.557,1.257,0.908,2.03,1.051,2.317c0.395,0.754,0.777,1.257,1.145,1.509
	c0.369,0.251,0.895,0.413,1.576,0.485v0.862h-3.098c-0.861,0-1.531-0.193-2.006-0.579c-0.477-0.386-0.922-1.019-1.334-1.899
	c-0.197-0.431-0.4-0.917-0.607-1.455c-0.205-0.539-0.502-1.342-0.889-2.411c-0.385-1.068-0.858-1.782-1.414-2.142
	c-0.377-0.251-0.951-0.377-1.725-0.377v4.741c0,1.455,0.117,2.362,0.351,2.721c0.233,0.359,0.852,0.539,1.858,0.539v0.862h-7.865
	v-0.862c0.988,0,1.602-0.175,1.846-0.525c0.242-0.35,0.363-1.262,0.363-2.734v-4.741c-0.736,0-1.303,0.125-1.697,0.377
	c-0.574,0.377-1.061,1.123-1.455,2.236c-0.305,0.826-0.584,1.553-0.836,2.182c-0.322,0.844-0.537,1.374-0.645,1.589
	c-0.396,0.88-0.832,1.513-1.307,1.899c-0.477,0.386-1.154,0.579-2.035,0.579h-3.098v-0.862c0.646-0.072,1.15-0.225,1.508-0.458
	c0.432-0.288,0.836-0.799,1.213-1.536c0.145-0.305,0.494-1.069,1.051-2.29c0.412-0.916,0.691-1.5,0.836-1.751
	c0.377-0.7,0.844-1.262,1.4-1.684c0.557-0.422,1.176-0.732,1.857-0.93c-0.412-0.252-0.754-0.502-1.023-0.754
	c-0.574-0.539-1.049-1.204-1.428-1.994c-0.699-1.544-1.203-2.505-1.508-2.882c-0.359-0.431-0.816-0.646-1.375-0.646H171.2
	c-0.287,0-0.525-0.085-0.713-0.256c-0.189-0.17-0.283-0.453-0.283-0.848c0-0.306,0.135-0.553,0.404-0.741
	c0.27-0.188,0.646-0.283,1.131-0.283c0.611,0,1.158,0.207,1.643,0.62c0.486,0.413,0.916,1.087,1.293,2.021
	c1.061,2.407,1.887,3.879,2.479,4.418c0.432,0.395,0.885,0.665,1.361,0.808c0.477,0.144,1.127,0.216,1.953,0.216v-3.556
	c0-1.455-0.117-2.362-0.35-2.721c-0.234-0.359-0.854-0.539-1.859-0.539v-0.862h7.865v0.862c-0.986,0-1.602,0.175-1.844,0.525
	C184.036,41.195,183.915,42.106,183.915,43.579L183.915,43.579z"/>
</svg>
