<?xml version="1.0" encoding="utf-8"?>
<!-- Generator: Adobe Illustrator 17.0.0, SVG Export Plug-In . SVG Version: 6.00 Build 0)  -->
<!DOCTYPE svg PUBLIC "-//W3C//DTD SVG 1.1//EN" "http://www.w3.org/Graphics/SVG/1.1/DTD/svg11.dtd">
<svg version="1.1" id="Layer_1" xmlns="http://www.w3.org/2000/svg" xmlns:xlink="http://www.w3.org/1999/xlink" x="0px" y="0px"
	 width="25.249px" height="33.817px" viewBox="0 0 25.249 33.817" enable-background="new 0 0 25.249 33.817" xml:space="preserve">
<path fill="none" stroke="#000000" stroke-linecap="round" stroke-linejoin="round" stroke-miterlimit="10" d="M19.718,26.761
	c3.044-2.215,5.031-5.795,5.031-9.849c0-6.729-5.455-12.185-12.184-12.185c-0.071,0-0.141,0.007-0.211,0.008"/>
<line fill="none" stroke="#000000" stroke-linecap="round" stroke-linejoin="round" stroke-miterlimit="10" x1="11.771" y1="4.416" x2="17.724" y2="0.5"/>
<line fill="none" stroke="#000000" stroke-linecap="round" stroke-linejoin="round" stroke-miterlimit="10" x1="11.771" y1="4.416" x2="15.755" y2="10.473"/>
<path fill="none" stroke="#000000" stroke-linecap="round" stroke-linejoin="round" stroke-miterlimit="10" d="M5.532,6.978
	C2.487,9.193,0.5,12.774,0.5,16.827c0,6.729,5.455,12.184,12.184,12.184c0.071,0,0.141-0.007,0.211-0.008"/>
<line fill="none" stroke="#000000" stroke-linecap="round" stroke-linejoin="round" stroke-miterlimit="10" x1="13.584" y1="29.401" x2="7.63" y2="33.317"/>
<line fill="none" stroke="#000000" stroke-linecap="round" stroke-linejoin="round" stroke-miterlimit="10" x1="13.584" y1="29.401" x2="9.6" y2="23.345"/>
</svg>
