<?xml version="1.0" encoding="utf-8"?>
<!-- Generator: Adobe Illustrator 17.0.0, SVG Export Plug-In . SVG Version: 6.00 Build 0)  -->
<!DOCTYPE svg PUBLIC "-//W3C//DTD SVG 1.1//EN" "http://www.w3.org/Graphics/SVG/1.1/DTD/svg11.dtd">
<svg version="1.1" id="Layer_1" xmlns="http://www.w3.org/2000/svg" xmlns:xlink="http://www.w3.org/1999/xlink" x="0px" y="0px"
	 width="8.791px" height="10.99px" viewBox="0 0 8.791 10.99" enable-background="new 0 0 8.791 10.99" xml:space="preserve">
<g>
	<g>
		<path fill="#FFFFFF" d="M8.178,5.843c-0.408-0.441-0.952-0.731-1.63-0.875V4.91C7.02,4.711,7.39,4.404,7.657,3.986
			C7.926,3.567,8.06,3.091,8.06,2.555c0-0.464-0.098-0.872-0.292-1.227C7.574,0.975,7.279,0.69,6.886,0.479
			C6.523,0.282,6.133,0.153,5.717,0.093C5.301,0.03,4.689,0,3.883,0H0v10.99h4.399c0.764,0,1.391-0.068,1.885-0.207
			c0.497-0.139,0.95-0.368,1.363-0.692c0.351-0.272,0.628-0.612,0.834-1.025c0.207-0.414,0.31-0.894,0.31-1.441
			C8.791,6.878,8.587,6.284,8.178,5.843z M2.746,2.015h0.192c0.491,0,0.862,0.003,1.111,0.01c0.249,0.008,0.464,0.05,0.645,0.131
			C4.888,2.24,5.029,2.376,5.12,2.562C5.21,2.749,5.256,2.93,5.256,3.109c0,0.239-0.043,0.451-0.127,0.635
			C5.046,3.925,4.893,4.069,4.674,4.172C4.472,4.265,4.275,4.316,4.087,4.326c-0.189,0.01-0.522,0.015-0.993,0.015H2.746V2.015z
			 M5.775,8.284C5.659,8.493,5.478,8.651,5.226,8.761C4.941,8.884,4.659,8.949,4.384,8.959C4.109,8.97,3.613,8.975,2.895,8.975
			H2.746V6.223h0.509c0.491,0,0.884,0.003,1.177,0.011c0.292,0.007,0.523,0.042,0.69,0.108c0.275,0.098,0.481,0.241,0.62,0.435
			c0.139,0.191,0.206,0.456,0.206,0.796C5.948,7.838,5.891,8.075,5.775,8.284z"/>
	</g>
</g>
</svg>
