<?xml version="1.0" encoding="utf-8"?>
<!-- Generator: Adobe Illustrator 17.0.0, SVG Export Plug-In . SVG Version: 6.00 Build 0)  -->
<!DOCTYPE svg PUBLIC "-//W3C//DTD SVG 1.1//EN" "http://www.w3.org/Graphics/SVG/1.1/DTD/svg11.dtd">
<svg version="1.1" id="Слой_1" xmlns="http://www.w3.org/2000/svg" xmlns:xlink="http://www.w3.org/1999/xlink" x="0px" y="0px"
	 width="326.642px" height="478.176px" viewBox="0 0 326.642 478.176" enable-background="new 0 0 326.642 478.176"
	 xml:space="preserve">
<symbol  id="Новый_символ_15" viewBox="-15.315 -15.314 30.629 30.628">
	<g>
		<path fill="#FFFFFF" d="M10.333,5.507c-0.424,0.461-1.047,0.75-1.741,0.75H3.562c-0.695,0-1.319-0.289-1.741-0.75
			C1.466,5.126,1.25,4.612,1.25,4.089V-2.36c0-0.471,0.407-0.854,0.904-0.854c0.476,0,0.903,0.364,0.903,0.854v5.305
			c0,0.135,0.116,0.244,0.259,0.244c0.137,0,0.259-0.103,0.259-0.244v-15.031c0-0.586,0.504-1.063,1.121-1.063
			c0.591,0,1.123,0.453,1.123,1.063v8.78c0,0.135,0.116,0.245,0.258,0.245c0.143,0,0.259-0.11,0.259-0.245v-8.78
			c0-0.609,0.53-1.063,1.122-1.063c0.617,0,1.122,0.476,1.122,1.063V2.944c0,0.141,0.123,0.244,0.259,0.244
			c0.143,0,0.257-0.109,0.257-0.244V-2.36c0-0.49,0.428-0.854,0.905-0.854c0.496,0,0.903,0.384,0.903,0.854v6.449
			C10.904,4.612,10.687,5.126,10.333,5.507z M6.077,6.802c1.201,0,2.174,0.973,2.174,2.174c0,1.2-0.974,2.173-2.174,2.173
			s-2.173-0.973-2.173-2.173C3.903,7.774,4.876,6.802,6.077,6.802z"/>
		<path fill="#2E130B" d="M10.333,6.429C9.91,6.888,9.287,7.177,8.593,7.177H3.562c-0.695,0-1.319-0.289-1.741-0.748
			C1.466,6.046,1.25,5.533,1.25,5.01v-6.45c0-0.469,0.407-0.854,0.904-0.854c0.476,0,0.903,0.364,0.903,0.854v5.306
			c0,0.136,0.116,0.244,0.259,0.244c0.137,0,0.259-0.103,0.259-0.244v-15.032c0-0.584,0.504-1.063,1.121-1.063
			c0.591,0,1.123,0.453,1.123,1.063v8.781c0,0.135,0.116,0.244,0.258,0.244c0.143,0,0.259-0.109,0.259-0.244v-8.781
			c0-0.609,0.53-1.063,1.122-1.063c0.617,0,1.122,0.478,1.122,1.063V3.865c0,0.142,0.123,0.244,0.259,0.244
			c0.143,0,0.257-0.108,0.257-0.244V-1.44c0-0.49,0.428-0.854,0.905-0.854c0.496,0,0.903,0.386,0.903,0.854v6.45
			C10.904,5.533,10.687,6.046,10.333,6.429z M6.077,7.723c1.201,0,2.174,0.974,2.174,2.173c0,1.201-0.974,2.174-2.174,2.174
			s-2.173-0.973-2.173-2.174C3.903,8.696,4.876,7.723,6.077,7.723z"/>
	</g>
	<path fill="none" stroke="#2E130B" stroke-miterlimit="10" d="M10.413,14.814h-20.827c-2.421,0-4.401-1.981-4.401-4.4v-20.827
		c0-2.421,1.981-4.4,4.401-4.4h20.827c2.421,0,4.401,1.979,4.401,4.4v20.827C14.814,12.833,12.834,14.814,10.413,14.814z"/>
	<g>
		<g>
			<path fill="#FFFFFF" d="M0.969-1.443c-0.587,2.07-1.18,4.14-1.759,6.213c-0.276,0.973-1.205,1.615-2.222,1.62h-4.104
				c-1.016-0.005-1.945-0.647-2.221-1.62c-0.58-2.073-1.173-4.142-1.759-6.213c-0.129-0.454,0.159-0.924,0.639-1.047
				c0.461-0.116,0.972,0.133,1.105,0.603l1.664,5.876c0.038,0.131,0.18,0.208,0.318,0.172c0.131-0.032,0.221-0.164,0.182-0.299
				l-2.624-9.268h2.245v-6.549c0-0.584,0.505-1.063,1.123-1.063c0.59,0,1.122,0.455,1.122,1.063v6.305
				c0,0.135,0.116,0.244,0.259,0.244c0.142,0,0.259-0.109,0.259-0.244v-6.305c0-0.607,0.53-1.063,1.122-1.063
				c0.617,0,1.121,0.479,1.121,1.063v6.549h2.247l-2.625,9.268C-2.978,3.996-2.889,4.128-2.757,4.16
				c0.138,0.036,0.28-0.041,0.317-0.172l1.664-5.876c0.133-0.47,0.645-0.719,1.105-0.603C0.81-2.367,1.098-1.898,0.969-1.443z
				 M-5.063,6.935c1.2,0,2.174,0.973,2.174,2.175c0,1.199-0.974,2.172-2.174,2.172s-2.174-0.973-2.174-2.172
				C-7.236,7.907-6.263,6.935-5.063,6.935z"/>
			<path fill="#2E130B" d="M0.969-0.522c-0.587,2.071-1.18,4.14-1.759,6.212c-0.276,0.974-1.205,1.616-2.222,1.62h-4.104
				c-1.016-0.004-1.945-0.647-2.221-1.62c-0.58-2.072-1.173-4.141-1.759-6.212c-0.129-0.454,0.159-0.925,0.639-1.047
				c0.461-0.116,0.972,0.134,1.105,0.602l1.664,5.876c0.038,0.131,0.18,0.209,0.318,0.174c0.131-0.033,0.221-0.165,0.182-0.299
				l-2.624-9.269h2.245v-6.548c0-0.586,0.505-1.063,1.123-1.063c0.59,0,1.122,0.454,1.122,1.063v6.304
				c0,0.136,0.116,0.244,0.259,0.244c0.142,0,0.259-0.108,0.259-0.244v-6.304c0-0.609,0.53-1.063,1.122-1.063
				c0.617,0,1.121,0.478,1.121,1.063v6.548h2.247l-2.625,9.269c-0.039,0.134,0.051,0.266,0.183,0.299
				c0.138,0.035,0.28-0.043,0.317-0.174l1.664-5.876c0.133-0.468,0.645-0.718,1.105-0.602C0.81-1.447,1.098-0.977,0.969-0.522z
				 M-5.063,7.856c1.2,0,2.174,0.973,2.174,2.173c0,1.201-0.974,2.175-2.174,2.175s-2.174-0.974-2.174-2.175
				C-7.236,8.828-6.263,7.856-5.063,7.856z"/>
		</g>
	</g>
</symbol>
<symbol  id="Новый_символ_2" viewBox="-15.314 -15.314 30.629 30.628">
	<g>
		<path fill="#FFFFFF" d="M-1.917,5.669c0.972,0,1.759,0.788,1.759,1.76c0,0.973-0.787,1.759-1.759,1.759
			c-0.971,0-1.758-0.787-1.758-1.759C-3.675,6.457-2.888,5.669-1.917,5.669z M9.16,6.05H4.546C3.9,6.044,3.315,5.78,2.89,5.359
			l-3.047-3.047v0.95c0,0.968-0.791,1.759-1.759,1.759c-0.968,0-1.758-0.791-1.758-1.759v-4.468l-2.167-2.168
			C-5.997-3.526-6.21-3.62-6.446-3.62h-2.712c-1.665,0-3.027-1.364-3.027-3.028c0-1.666,1.362-3.028,3.027-3.028h4.611
			c0.648,0.007,1.232,0.27,1.657,0.691l8.733,8.733C5.998-0.1,6.212-0.004,6.447-0.004H9.16c1.663,0,3.027,1.363,3.027,3.027
			C12.187,4.688,10.823,6.05,9.16,6.05z"/>
		<path fill="#2E130B" d="M-1.917,6.591c0.972,0,1.759,0.787,1.759,1.759c0,0.971-0.787,1.758-1.759,1.758
			c-0.971,0-1.758-0.787-1.758-1.758C-3.675,7.378-2.888,6.591-1.917,6.591z M9.16,6.972H4.546C3.9,6.965,3.315,6.702,2.89,6.279
			l-3.047-3.047v0.951c0,0.968-0.791,1.76-1.759,1.76c-0.968,0-1.758-0.792-1.758-1.76v-4.469l-2.167-2.167
			C-5.997-2.606-6.21-2.699-6.446-2.699h-2.712c-1.665,0-3.027-1.363-3.027-3.029c0-1.666,1.362-3.027,3.027-3.027h4.611
			c0.648,0.006,1.232,0.27,1.657,0.691l8.733,8.732c0.155,0.152,0.369,0.246,0.604,0.246H9.16c1.663,0,3.027,1.364,3.027,3.028
			C12.187,5.608,10.823,6.972,9.16,6.972z"/>
	</g>
	<path fill="none" stroke="#2E130B" stroke-miterlimit="10" d="M10.414,14.814h-20.827c-2.421,0-4.401-1.981-4.401-4.4v-20.827
		c0-2.421,1.981-4.401,4.401-4.401h20.827c2.421,0,4.401,1.98,4.401,4.401v20.827C14.815,12.834,12.835,14.814,10.414,14.814z"/>
</symbol>
<g>
	<polygon fill="#F7F1EB" stroke="#F7F1EB" stroke-width="6.3277" stroke-miterlimit="10" points="243.571,3.164 3.164,3.164 
		3.164,431.656 323.479,474.56 323.479,320.738 243.767,320.738 243.767,101.639 	"/>
	<polygon role="room" data-num="F01" fill="#786E63" stroke="#F7F0EA" stroke-width="0.7444" stroke-miterlimit="10" points="243.767,46.726 132.533,46.726 
		132.533,238.474 202.758,238.474 202.758,195.815 243.767,195.815 	"/>
	<polygon role="room" data-num="F02" fill="#786E63" stroke="#F7F0EA" stroke-width="0.7444" stroke-miterlimit="10" points="243.767,320.738 222.129,320.738 
		202.388,300.046 202.388,248.438 243.767,248.438 	"/>
	<g>
		
			<use xlink:href="#Новый_символ_2"  width="30.629" height="30.628" x="-15.314" y="-15.314" transform="matrix(0.3722 0 0 -0.3722 187.5571 296.4441)" overflow="visible"/>
		
			<use xlink:href="#Новый_символ_2"  width="30.629" height="30.628" x="-15.314" y="-15.314" transform="matrix(0.3722 0 0 -0.3722 142.8741 296.4441)" overflow="visible"/>
	</g>
	<polygon role="room" data-num="F05" fill="#786E63" stroke="#F7F0EA" stroke-width="0.7444" stroke-miterlimit="10" points="269.68,406.363 144.677,406.363 
		144.677,406.363 54.83,406.363 54.845,380.635 54.845,380.635 54.582,241.593 107.022,241.593 120.278,252.716 132.533,238.983 
		132.533,46.726 3.164,46.726 3.164,431.656 144.677,450.611 144.677,450.611 269.68,467.354 323.479,474.56 323.479,406.363 	"/>
	
		<rect x="276.423" y="320.738" fill="#786E63" stroke="#F7F0EA" stroke-width="0.7444" stroke-miterlimit="10" width="47.055" height="85.625"/>
	
		<rect x="243.767" y="320.738" fill="#786E63" stroke="#F7F0EA" stroke-width="0.7444" stroke-miterlimit="10" width="32.657" height="85.625"/>
	
		<rect role="room" data-num="R05" x="54.761" y="321.343" fill="#786E63" stroke="#F7F0EA" stroke-width="0.7444" stroke-miterlimit="10" width="33.389" height="85.021"/>
	<polygon fill="#786E63" stroke="#F7F0EA" stroke-width="0.7444" stroke-miterlimit="10" points="54.614,241.593 107.022,241.593 
		120.278,252.716 120.278,278.49 54.614,278.49 	"/>
	<polygon role="room" data-num="F03" fill="#786E63" stroke="#F7F0EA" stroke-width="0.7444" stroke-miterlimit="10" points="54.761,278.49 120.278,278.49 
		120.278,307.475 105.018,321.343 54.761,321.343 	"/>
	<polygon fill="#786E63" stroke="#F7F0EA" stroke-width="0.7444" stroke-miterlimit="10" points="243.767,46.726 243.767,3.177 
		243.571,3.164 3.164,3.164 3.164,46.726 86.592,46.726 	"/>
	
		<rect x="3.164" y="157.679" fill="#9F958B" stroke="#F7F0EA" stroke-width="0.3722" stroke-miterlimit="22.9256" width="0" height="24.636"/>
	
		<rect x="202.758" y="195.815" fill="#9F958B" stroke="#F7F0EA" stroke-width="0.4424" stroke-miterlimit="22.9256" width="41.008" height="21.33"/>
	
		<use xlink:href="#Новый_символ_15"  width="30.629" height="30.628" x="-15.315" y="-15.314" transform="matrix(0.3726 0 0 -0.3726 234.1525 233.1458)" overflow="visible"/>
	<path fill="#FFFFFF" stroke="#F7F0EA" stroke-width="0.7444" stroke-miterlimit="10" d="M175.466,310.602H155.47
		c-2.457,0-4.467-2.01-4.467-4.467v-44.133c0-2.457,2.01-4.467,4.467-4.467h19.996c2.457,0,4.467,2.01,4.467,4.467v44.133
		C179.933,308.592,177.923,310.602,175.466,310.602z"/>
	<polygon fill="#FFFFFF" stroke="#F7F0EA" stroke-width="0.7444" stroke-miterlimit="10" points="114.334,349.039 114.334,389.338 
		144.677,389.338 144.677,406.363 176.669,406.363 176.669,389.338 203.443,389.338 203.443,349.039 	"/>
	<g>
		<text transform="matrix(1 0 0 1 206.8763 281.4727)"><tspan x="0" y="0" fill="#DBD9D6" font-family="'MinionPro-Bold'" font-size="7.6375">F02 /</tspan><tspan x="0" y="6.547" fill="#DBD9D6" font-family="'MinionPro-Bold'" font-size="7.6375">GRISHKO</tspan></text>
		<text transform="matrix(1 0 0 1 157.5052 146.5919)" fill="#DBD9D6" font-family="'MinionPro-Bold'" font-size="7.6375">F01 / GALLADANCE</text>
		<text transform="matrix(1 0 0 1 82.8021 266.3291)" fill="#DBD9D6" font-family="'MinionPro-Bold'" font-size="7.6375">F04</text>
		<text transform="matrix(1 0 0 1 82.8021 302.0196)" fill="#DBD9D6" font-family="'MinionPro-Bold'" font-size="7.6375">F03</text>
		<text transform="matrix(1 0 0 1 85.5736 25.3731)" fill="#DBD9D6" font-family="'MinionPro-Bold'" font-size="7.6375">Бизнес-центр</text>
		<text transform="matrix(1 0 0 1 60.4916 133.4996)" fill="#DBD9D6" font-family="'MinionPro-Bold'" font-size="7.6375">F05</text>
		<text transform="matrix(1 0 0 1 61.6122 373.584)" fill="#DBD9D6" font-family="'MinionPro-Bold'" font-size="7.6375">R05</text>
	</g>
	<g>
		<path fill="#DBD9D6" d="M68.102,348.483c-3.269,0-5.922,2.649-5.922,5.922c0,3.273,2.653,5.922,5.922,5.922
			c3.27,0,5.922-2.649,5.922-5.922C74.025,351.132,71.372,348.483,68.102,348.483z M68.102,358.624
			c-2.331,0-4.215-1.896-4.215-4.215c0-2.331,1.884-4.223,4.215-4.223c2.335,0,4.215,1.892,4.215,4.223
			C72.317,356.728,70.438,358.624,68.102,358.624z"/>
		<path fill="#DBD9D6" d="M68.102,351.167c-1.77,0-3.187,1.429-3.187,3.191c0,1.762,1.417,3.194,3.187,3.194
			c1.759,0,3.191-1.432,3.191-3.194C71.293,352.596,69.861,351.167,68.102,351.167z"/>
		<g>
			<path fill="#DBD9D6" d="M60.987,347.357c0-0.107-0.087-0.192-0.188-0.192c-0.114,0-0.196,0.086-0.196,0.192v2.323h-0.346v-2.323
				c0-0.107-0.087-0.192-0.192-0.192c-0.103,0-0.189,0.086-0.189,0.192v2.323h-0.31v-2.323c0-0.107-0.086-0.192-0.192-0.192
				c-0.11,0-0.197,0.086-0.197,0.192v2.323h-0.262v-2.323c0-0.107-0.078-0.192-0.193-0.192c-0.101,0-0.184,0.086-0.184,0.192v2.323
				c-0.078,1.165,0.852,2.005,0.852,2.005v2.672h0.773v-2.672c0.636-0.876,0.781-1.46,0.812-1.762
				c0.004-0.023,0.012-0.028,0.012-0.039V347.357z"/>
			<g>
				<path fill="#DBD9D6" d="M59.06,360.932c0,0.4,0.326,0.714,0.723,0.714c0.384,0,0.71-0.314,0.71-0.714v-6.389H59.06V360.932z"/>
			</g>
		</g>
		<g>
			<path fill="#DBD9D6" d="M75.755,349.625c0,0.604,0.297,1.774,0.361,2.358c0.051,0.53,0.039,1.704,0.019,2.496h0.671v-7.452
				C75.503,347.721,75.755,349.625,75.755,349.625z"/>
			<g>
				<path fill="#DBD9D6" d="M75.732,361.069c0,0.389,0.318,0.71,0.71,0.71c0.397,0,0.722-0.321,0.722-0.71v-6.4h-1.432V361.069z"/>
			</g>
		</g>
	</g>
	<g>
		<path fill="#DBD9D6" d="M110.184,148.073c-0.06-1.178-0.387-2.089-1.061-2.955c-0.017-0.021-0.034-0.042-0.052-0.063
			c-1.118-1.263-2.689-1.878-4.802-1.878c-0.273,0-0.554,0.01-0.858,0.029c-0.015,0.001-0.029,0.002-0.044,0.004
			c-1.144,0.113-2.107,0.384-2.916,0.821c-0.748-0.444-1.663-0.714-2.767-0.821c-0.011-0.001-0.022-0.002-0.034-0.003
			c-0.284-0.02-0.566-0.03-0.839-0.03c-1.503,0-2.782,0.293-3.818,0.872c-0.969-0.583-2.14-0.877-3.495-0.877
			c-0.265,0-0.537,0.011-0.82,0.032l0.239-1.476c0.06-0.372-0.046-0.752-0.29-1.039c-0.244-0.287-0.602-0.452-0.979-0.452h-6.406
			c-0.173,0-0.338,0.034-0.49,0.097c-0.81-0.206-1.569-0.237-2.127-0.237c-0.17,0-0.34,0.003-0.511,0.008
			c-0.017,0.001-0.033,0.001-0.05,0.003c-1.201,0.085-2.226,0.338-3.111,0.778c-0.04-0.069-0.086-0.136-0.138-0.197
			c-0.244-0.287-0.602-0.452-0.979-0.452h-6.384c-0.193,0-0.378,0.043-0.544,0.121c-0.168-0.078-0.354-0.121-0.544-0.121h-6.406
			c-0.632,0-1.17,0.46-1.27,1.084l-0.295,1.857c-0.488-0.018-0.987,0.021-1.48,0.113l-4.836-0.032
			c-0.234,0.003-0.448,0.058-0.638,0.164c-0.663-0.172-1.361-0.257-2.09-0.251l0.364-1.303c0.108-0.387,0.029-0.803-0.214-1.123
			c-0.243-0.32-0.622-0.509-1.024-0.509H31.509c-0.687,0-1.253,0.541-1.284,1.227l-0.879,19.328
			c-0.016,0.351,0.112,0.693,0.355,0.947c0.243,0.254,0.578,0.397,0.929,0.397h12.461c0.403,0,0.771-0.187,1.009-0.489
			c0.906,0.44,1.988,0.662,3.234,0.662c0.369,0,0.764-0.019,1.173-0.058c0.01-0.001,0.02-0.002,0.03-0.003
			c0.235-0.028,0.499-0.063,0.781-0.119c0.045,0.005,0.09,0.007,0.135,0.007h13.812c0.079,0,0.156-0.007,0.231-0.021
			c0.498,0.13,1.014,0.196,1.541,0.196c0.528,0,1.055-0.066,1.572-0.198c0.079,0.015,0.159,0.022,0.239,0.022h3.901
			c0.58,0,1.081-0.387,1.236-0.933c0.5,0.332,1.078,0.596,1.725,0.783c0.017,0.005,0.035,0.01,0.052,0.014
			c1.374,0.335,2.755,0.364,4.02,0.084c0.116,0.034,0.238,0.052,0.361,0.052h6.395c0.213,0.049,0.417,0.082,0.606,0.112l0.027,0.004
			c0.031,0.005,0.063,0.009,0.094,0.012c0.329,0.028,0.631,0.041,0.921,0.041c0.583,0,1.122-0.055,1.64-0.169h4.26
			c0.148,0,0.292-0.025,0.426-0.072c0.312,0.079,0.642,0.14,1,0.184c0.01,0.001,0.02,0.002,0.029,0.003
			c1.893,0.188,3.536-0.075,4.872-0.775c0.614,0.354,1.352,0.596,2.232,0.733c0.011,0.002,0.022,0.003,0.033,0.005
			c2.126,0.275,4.006-0.044,5.52-0.936c0.02-0.012,0.039-0.024,0.058-0.037c1.371-0.91,2.221-2.175,2.599-3.868
			c0.006-0.025,0.01-0.05,0.014-0.075l0.352-2.176c0.002-0.011,0.003-0.021,0.005-0.032c0.065-0.48,0.081-0.925,0.047-1.352
			c0.095-0.147,0.162-0.315,0.191-0.497l0.637-4c0.001-0.007,0.002-0.014,0.003-0.02c0.054-0.377,0.079-0.721,0.079-1.083
			C110.186,148.117,110.185,148.095,110.184,148.073z M108.834,149.04l-0.637,4h-0.352c0.187,0.637,0.198,1.231,0.11,1.879
			l-0.352,2.176c-0.297,1.33-0.912,2.319-2.055,3.077c-1.418,0.835-3.088,0.978-4.703,0.769c-0.846-0.132-1.736-0.406-2.374-1.011
			c-1.385,1.022-3.143,1.209-4.802,1.044c-0.539-0.066-1.033-0.176-1.538-0.385l-0.044,0.264h-4.406
			c-0.769,0.187-1.527,0.198-2.308,0.132c-0.275-0.044-0.56-0.088-0.824-0.176v0.044h-6.406l0.033-0.209
			c-1.329,0.451-2.758,0.44-4.11,0.11c-1.406-0.407-2.516-1.263-2.868-2.747l-0.451,2.846h-3.901l-0.264-0.066
			c-1.077,0.34-2.242,0.33-3.296-0.088l-0.022,0.154h-6.406h-1h-6.406l0.011-0.077c-0.352,0.099-0.703,0.154-1.077,0.198
			c-1.758,0.165-3.692,0-4.945-1.395l-0.352,1.275H30.63l0.879-19.328h16.966l-0.879,3.143c1.461-0.33,3.022-0.297,4.406,0.308
			l0.066-0.429l4.967,0.033c0.736-0.154,1.516-0.165,2.264,0.011l0.165,0.044l0.495-3.11h6.406l-0.483,3
			c0.362-0.055,0.725-0.066,1.099-0.055l0.472-2.945h6.384l-0.396,2.461c0.132-0.22,0.264-0.417,0.418-0.615
			c1.132-1.352,2.582-1.857,4.297-1.978c1.044-0.033,2.077,0.022,3.044,0.451l0.044-0.319h6.406l-0.527,3.253
			c0.362-0.11,0.714-0.176,1.077-0.231c1.681-0.209,3.451-0.11,4.769,1.077c1.242-1.044,3.033-1.242,4.593-1.132
			c1.022,0.099,2.077,0.373,2.846,1.11c0.879-0.714,1.978-1,3.088-1.11c1.703-0.11,3.428,0.077,4.615,1.417
			c0.538,0.692,0.747,1.363,0.791,2.231C108.9,148.446,108.878,148.732,108.834,149.04z"/>
		<g>
			<path fill="#DBD9D6" d="M56.596,151.6h2.901h0.022l0.571-3.593c0.088-0.549-0.044-0.989-0.407-1.319
				c-0.066-0.055-0.121-0.11-0.187-0.154c-0.33-0.231-0.747-0.352-1.231-0.352c-0.813,0-1.439,0.176-1.879,0.516l0.066-0.428h-2.912
				l-1.549,9.637l-0.516,3.219h0.516h2.396l1.659-10.34c0.066-0.374,0.264-0.571,0.593-0.571c0.341,0,0.472,0.198,0.407,0.593
				L56.596,151.6z"/>
			<path fill="#DBD9D6" d="M109.307,141.534c0.077-0.077,0.121-0.187,0.121-0.33c0-0.176-0.055-0.297-0.154-0.374
				c-0.099-0.077-0.253-0.121-0.461-0.121h-0.077h-0.582v1.736h0.264v-0.758h0.308l0.011,0.022l0.439,0.736h0.297l-0.494-0.769
				C109.12,141.666,109.219,141.611,109.307,141.534z M108.417,141.469v-0.538h0.319h0.044c0.11,0,0.198,0.022,0.253,0.055
				c0.077,0.033,0.121,0.11,0.121,0.198c0,0.121-0.044,0.209-0.132,0.242c-0.055,0.033-0.154,0.044-0.286,0.044H108.417z"/>
			<path fill="#DBD9D6" d="M109.801,140.502c-0.297-0.286-0.648-0.429-1.066-0.429c-0.418,0-0.78,0.143-1.077,0.429
				c-0.297,0.286-0.451,0.648-0.451,1.066c0,0.44,0.154,0.791,0.451,1.088c0.297,0.275,0.648,0.418,1.077,0.418
				c0.417,0,0.78-0.143,1.077-0.429c0.297-0.286,0.439-0.637,0.439-1.077C110.252,141.15,110.098,140.798,109.801,140.502z
				 M109.603,142.468c-0.231,0.242-0.527,0.363-0.868,0.363c-0.352,0-0.637-0.121-0.868-0.363c-0.242-0.242-0.352-0.538-0.352-0.901
				c0-0.352,0.11-0.648,0.352-0.879c0.231-0.242,0.516-0.363,0.868-0.363c0.341,0,0.626,0.121,0.868,0.363
				c0.231,0.242,0.352,0.527,0.352,0.879C109.955,141.93,109.834,142.227,109.603,142.468z"/>
			<polygon fill="#DBD9D6" points="46.212,143.249 45.267,143.249 43.564,143.249 41.311,150.578 41.608,143.249 37.971,143.249 
				35.696,150.578 36.048,143.249 33.158,143.249 32.432,159.127 35.718,159.127 38.212,150.369 37.959,159.127 41.783,159.127 
				45.267,146.622 			"/>
			<path fill="#DBD9D6" d="M52.475,148.787c0.121-0.78-0.044-1.373-0.484-1.791c-0.066-0.066-0.143-0.132-0.22-0.187
				c-0.615-0.417-1.362-0.626-2.264-0.626c-0.396,0-0.758,0.022-1.099,0.077c-1.626,0.264-2.56,1.143-2.802,2.637l-0.341,2.132
				l-0.89,5.56c-0.176,1.088,0.121,1.857,0.89,2.286c0.505,0.286,1.22,0.428,2.143,0.428c0.363,0,0.692-0.022,1-0.066
				c1.626-0.231,2.56-1.077,2.791-2.527l0.791-4.934L52.475,148.787z M49.552,148.809l-1.143,7.099l-0.121,0.769
				c-0.066,0.44-0.275,0.659-0.604,0.659c-0.341,0-0.472-0.22-0.406-0.659l1.132-7.098l0.132-0.769
				c0.066-0.429,0.264-0.637,0.604-0.637C49.486,148.171,49.618,148.38,49.552,148.809z"/>
			<polygon fill="#DBD9D6" points="64.343,143.249 63.54,143.249 61.431,143.249 59.497,155.281 58.881,159.127 59.497,159.127 
				61.804,159.127 63.54,148.259 			"/>
			<path fill="#DBD9D6" d="M92.264,148.897c0.121-0.758,0.022-1.363-0.286-1.802c-0.428-0.604-1.275-0.912-2.538-0.912
				c-0.593,0-1.132,0.055-1.593,0.176c-1.33,0.33-2.088,1.143-2.297,2.428l-0.418,2.571h2.714h0.099
				c0.033-0.187,0.066-0.462,0.088-0.824c0.044-0.363,0.077-0.637,0.11-0.824c0.165-1.022,0.429-1.538,0.813-1.538
				c0.341,0,0.473,0.209,0.407,0.637l-0.308,1.901c-0.033,0.22-0.418,0.516-1.154,0.89c-0.022,0.011-0.033,0.011-0.055,0.022
				c-1.242,0.626-2.088,1.154-2.538,1.582c-0.187,0.176-0.352,0.374-0.473,0.582c-0.176,0.286-0.286,0.593-0.34,0.923l-0.418,2.582
				c-0.143,0.89,0.11,1.484,0.758,1.78c0.33,0.154,0.769,0.231,1.308,0.231c0.78,0,1.352-0.132,1.703-0.385
				c0.11-0.088,0.209-0.176,0.275-0.286l-0.077,0.494h2.571l1.363-8.45L92.264,148.897z M88.088,156.72
				c-0.033,0.231-0.11,0.396-0.242,0.495c-0.088,0.066-0.198,0.099-0.33,0.099c-0.352,0-0.494-0.198-0.429-0.594l0.374-2.329
				c0.044-0.253,0.165-0.462,0.385-0.637c0.187-0.143,0.451-0.253,0.78-0.341L88.088,156.72z"/>
			<path fill="#DBD9D6" d="M98.154,152.578c-1.484-0.857-2.275-1.472-2.384-1.824c-0.099-0.352-0.099-0.879,0.022-1.571
				c0.099-0.67,0.341-1.011,0.703-1.011c0.363,0,0.45,0.538,0.286,1.604l-0.319,1.549h2.846l0.099-0.626l0.308-1.912
				c0.121-0.736,0.022-1.308-0.308-1.725c-0.44-0.582-1.297-0.879-2.582-0.879c-2.263,0-3.538,0.901-3.824,2.714l-0.275,1.725
				c-0.11,0.692-0.044,1.198,0.22,1.549c0.253,0.341,1.077,0.945,2.461,1.813c0.352,0.308,0.44,1.011,0.264,2.099
				c-0.132,0.835-0.363,1.253-0.692,1.253c-0.33,0-0.451-0.22-0.384-0.659l0.439-2.725h-2.912l-0.143,0.934l-0.297,1.824
				c-0.11,0.703-0.011,1.264,0.297,1.681c0.44,0.615,1.33,0.912,2.67,0.912c2.296,0,3.593-0.901,3.879-2.714l0.308-1.923
				C98.978,153.797,98.747,153.105,98.154,152.578z"/>
			<path fill="#DBD9D6" d="M68.375,146.655c-0.319-0.286-0.802-0.44-1.484-0.462c-0.077-0.011-0.165-0.011-0.242-0.011
				c-0.593,0-1.11,0.154-1.582,0.483c-0.462,0.319-0.736,0.758-0.824,1.297l-0.703,4.384l-0.78,4.857
				c-0.099,0.648,0.077,1.154,0.539,1.538c0.077,0.055,0.154,0.121,0.242,0.165c0.428,0.264,0.945,0.396,1.571,0.396
				c0.626,0,1.22-0.198,1.78-0.593c0-0.011,0.011-0.011,0.011-0.011l0.176,0.428h2.198l2.549-15.878h-2.912L68.375,146.655z
				 M68.035,148.743l-1.143,7.153l-0.132,0.824c-0.066,0.396-0.264,0.594-0.593,0.594c-0.34,0-0.483-0.198-0.428-0.594l1.154-7.142
				l0.132-0.813c0.055-0.396,0.264-0.593,0.604-0.593C67.958,148.171,68.1,148.358,68.035,148.743z"/>
			<path fill="#DBD9D6" d="M104.241,146.183c-2.264,0-3.538,0.901-3.824,2.714l-0.275,1.725c-0.11,0.692-0.044,1.198,0.22,1.549
				c0.253,0.341,1.077,0.945,2.461,1.813c0.352,0.308,0.44,1.011,0.264,2.099c-0.132,0.835-0.363,1.253-0.692,1.253
				s-0.451-0.22-0.385-0.659l0.439-2.725h-2.912l-0.132,0.835l-0.308,1.923c-0.11,0.714-0.011,1.285,0.308,1.703
				c0.45,0.594,1.34,0.89,2.659,0.89c2.297,0,3.593-0.901,3.879-2.714l0.308-1.923c0.143-0.868-0.088-1.56-0.681-2.088
				c-1.483-0.857-2.275-1.472-2.384-1.824c-0.099-0.352-0.099-0.879,0.022-1.571c0.099-0.67,0.341-1.011,0.703-1.011
				c0.363,0,0.451,0.538,0.286,1.604l-0.319,1.549h2.846l0.407-2.538C107.417,147.051,106.45,146.183,104.241,146.183z"/>
			<polygon fill="#DBD9D6" points="85.627,143.249 84.836,143.249 82.715,143.249 80.902,154.523 80.166,159.127 80.902,159.127 
				83.078,159.127 84.836,148.182 			"/>
			<path fill="#DBD9D6" d="M77.55,152.754l-0.626,3.912c-0.044,0.264-0.209,0.396-0.494,0.396c-0.308,0-0.451-0.132-0.407-0.396
				l1.769-11.01c0.044-0.264,0.22-0.395,0.527-0.395c0.286,0,0.418,0.132,0.374,0.395l-0.505,3.143h2.714h0.22l0.462-2.879
				c0.176-1.055-0.055-1.813-0.681-2.274c-0.484-0.363-1.22-0.539-2.198-0.539c-2.484,0-3.89,1.022-4.22,3.088l-1.637,10.219
				c-0.308,1.912,0.78,2.857,3.264,2.857c0.857,0,1.67-0.22,2.417-0.681c0.758-0.451,1.198-1.055,1.319-1.813l0.648-4.022H77.55z"/>
		</g>
	</g>
	<g>
		<path fill="#DBD9D6" d="M230.272,425.363c-0.06-1.177-0.387-2.089-1.061-2.955c-0.017-0.021-0.034-0.042-0.052-0.063
			c-1.118-1.263-2.689-1.878-4.802-1.878c-0.273,0-0.554,0.01-0.858,0.029c-0.015,0.001-0.029,0.002-0.044,0.004
			c-1.144,0.113-2.107,0.384-2.916,0.821c-0.748-0.444-1.663-0.714-2.767-0.821c-0.011-0.001-0.022-0.002-0.034-0.003
			c-0.283-0.02-0.566-0.03-0.839-0.03c-1.503,0-2.782,0.293-3.818,0.872c-0.969-0.582-2.14-0.877-3.495-0.877
			c-0.265,0-0.536,0.011-0.819,0.032l0.239-1.476c0.06-0.372-0.046-0.752-0.29-1.039c-0.244-0.287-0.602-0.452-0.979-0.452h-6.406
			c-0.173,0-0.338,0.034-0.49,0.097c-0.81-0.206-1.569-0.237-2.127-0.237c-0.17,0-0.34,0.003-0.511,0.009
			c-0.017,0.001-0.033,0.001-0.05,0.003c-1.201,0.085-2.226,0.338-3.111,0.778c-0.04-0.069-0.086-0.135-0.139-0.197
			c-0.244-0.287-0.602-0.452-0.979-0.452h-6.384c-0.193,0-0.378,0.043-0.544,0.121c-0.168-0.079-0.354-0.121-0.544-0.121h-6.406
			c-0.632,0-1.17,0.46-1.27,1.084l-0.295,1.857c-0.488-0.018-0.987,0.021-1.48,0.113l-4.837-0.032
			c-0.234,0.003-0.448,0.058-0.637,0.164c-0.663-0.172-1.361-0.257-2.091-0.251l0.364-1.303c0.108-0.387,0.029-0.803-0.214-1.123
			c-0.243-0.32-0.622-0.509-1.024-0.509h-16.966c-0.687,0-1.253,0.54-1.284,1.227l-0.879,19.328
			c-0.016,0.351,0.112,0.693,0.355,0.947c0.243,0.254,0.578,0.397,0.93,0.397h12.461c0.403,0,0.771-0.187,1.01-0.489
			c0.906,0.44,1.988,0.662,3.234,0.662c0.37,0,0.764-0.02,1.173-0.058c0.01-0.001,0.02-0.002,0.03-0.003
			c0.235-0.028,0.499-0.063,0.781-0.119c0.045,0.005,0.089,0.007,0.135,0.007h13.812c0.078,0,0.156-0.007,0.23-0.021
			c0.498,0.131,1.014,0.197,1.541,0.197c0.528,0,1.055-0.067,1.572-0.198c0.079,0.015,0.159,0.022,0.239,0.022h3.901
			c0.58,0,1.081-0.387,1.236-0.933c0.5,0.332,1.078,0.596,1.725,0.783c0.017,0.005,0.035,0.01,0.052,0.014
			c1.374,0.335,2.755,0.364,4.02,0.084c0.116,0.034,0.238,0.052,0.361,0.052h6.395c0.213,0.049,0.417,0.081,0.606,0.111l0.027,0.004
			c0.031,0.005,0.063,0.009,0.094,0.012c0.329,0.028,0.631,0.041,0.922,0.041c0.583,0,1.122-0.055,1.641-0.168h4.26
			c0.148,0,0.292-0.025,0.426-0.072c0.312,0.079,0.642,0.14,1,0.184c0.01,0.001,0.02,0.002,0.029,0.003
			c1.893,0.188,3.536-0.075,4.872-0.775c0.614,0.354,1.352,0.596,2.232,0.733c0.011,0.002,0.022,0.003,0.033,0.005
			c2.126,0.275,4.006-0.044,5.52-0.936c0.02-0.012,0.039-0.024,0.058-0.036c1.371-0.909,2.221-2.175,2.599-3.868
			c0.006-0.025,0.01-0.05,0.014-0.075l0.352-2.176c0.002-0.011,0.003-0.021,0.005-0.032c0.065-0.48,0.081-0.925,0.047-1.352
			c0.095-0.147,0.162-0.315,0.191-0.497l0.637-4c0.001-0.007,0.002-0.014,0.003-0.02c0.054-0.377,0.079-0.721,0.079-1.083
			C230.274,425.406,230.273,425.384,230.272,425.363z M228.922,426.329l-0.637,4h-0.352c0.187,0.637,0.198,1.231,0.11,1.879
			l-0.352,2.176c-0.297,1.33-0.912,2.319-2.055,3.077c-1.418,0.835-3.088,0.978-4.703,0.769c-0.846-0.132-1.736-0.407-2.374-1.011
			c-1.385,1.022-3.143,1.209-4.802,1.044c-0.539-0.066-1.033-0.176-1.538-0.385l-0.044,0.264h-4.406
			c-0.769,0.187-1.527,0.198-2.308,0.132c-0.275-0.044-0.56-0.088-0.824-0.176v0.044h-6.406l0.033-0.209
			c-1.329,0.451-2.758,0.44-4.11,0.11c-1.406-0.407-2.516-1.264-2.868-2.747l-0.451,2.846h-3.901l-0.264-0.066
			c-1.077,0.34-2.242,0.33-3.296-0.088l-0.022,0.154h-6.406h-1h-6.406l0.011-0.077c-0.352,0.099-0.703,0.154-1.077,0.198
			c-1.758,0.165-3.692,0-4.945-1.395l-0.352,1.275h-12.461l0.879-19.328h16.966l-0.879,3.143c1.462-0.33,3.022-0.297,4.406,0.308
			l0.066-0.429l4.967,0.033c0.736-0.154,1.516-0.165,2.264,0.011l0.165,0.044l0.494-3.11h6.406l-0.484,3
			c0.363-0.055,0.725-0.066,1.099-0.055l0.472-2.945h6.384l-0.396,2.461c0.132-0.22,0.264-0.418,0.418-0.615
			c1.132-1.352,2.582-1.857,4.296-1.978c1.044-0.033,2.077,0.022,3.044,0.451l0.044-0.319h6.406l-0.527,3.253
			c0.363-0.11,0.714-0.176,1.077-0.231c1.681-0.209,3.451-0.11,4.769,1.077c1.242-1.044,3.033-1.242,4.593-1.132
			c1.022,0.099,2.077,0.374,2.846,1.11c0.879-0.714,1.978-1,3.088-1.11c1.703-0.11,3.428,0.077,4.615,1.418
			c0.538,0.692,0.747,1.363,0.791,2.231C228.988,425.735,228.966,426.021,228.922,426.329z"/>
		<g>
			<path fill="#DBD9D6" d="M176.684,428.889h2.901h0.022l0.571-3.593c0.088-0.549-0.044-0.989-0.407-1.319
				c-0.066-0.055-0.121-0.11-0.187-0.154c-0.33-0.231-0.747-0.352-1.231-0.352c-0.813,0-1.439,0.176-1.879,0.516l0.066-0.428h-2.912
				l-1.549,9.637l-0.516,3.22h0.516h2.395l1.659-10.34c0.066-0.374,0.264-0.571,0.593-0.571c0.341,0,0.473,0.198,0.407,0.593
				L176.684,428.889z"/>
			<path fill="#DBD9D6" d="M229.395,418.824c0.077-0.077,0.121-0.187,0.121-0.33c0-0.176-0.055-0.297-0.154-0.374
				c-0.099-0.077-0.253-0.121-0.461-0.121h-0.077h-0.583v1.736h0.264v-0.758h0.308l0.011,0.022l0.439,0.736h0.296l-0.494-0.769
				C229.208,418.956,229.307,418.901,229.395,418.824z M228.505,418.758v-0.538h0.319h0.044c0.11,0,0.198,0.022,0.253,0.055
				c0.077,0.033,0.121,0.11,0.121,0.198c0,0.121-0.044,0.209-0.132,0.242c-0.055,0.033-0.154,0.044-0.286,0.044H228.505z"/>
			<path fill="#DBD9D6" d="M229.889,417.791c-0.297-0.286-0.648-0.428-1.066-0.428c-0.418,0-0.78,0.143-1.077,0.428
				c-0.297,0.286-0.451,0.648-0.451,1.066c0,0.44,0.154,0.791,0.451,1.088c0.297,0.275,0.648,0.418,1.077,0.418
				c0.417,0,0.78-0.143,1.077-0.428c0.297-0.286,0.44-0.637,0.44-1.077C230.34,418.439,230.186,418.088,229.889,417.791z
				 M229.691,419.758c-0.231,0.242-0.527,0.363-0.868,0.363c-0.352,0-0.638-0.121-0.868-0.363c-0.242-0.242-0.352-0.538-0.352-0.901
				c0-0.352,0.11-0.648,0.352-0.879c0.231-0.242,0.516-0.363,0.868-0.363c0.34,0,0.626,0.121,0.868,0.363
				c0.231,0.242,0.352,0.527,0.352,0.879C230.043,419.219,229.922,419.516,229.691,419.758z"/>
			<polygon fill="#DBD9D6" points="166.3,420.538 165.355,420.538 163.652,420.538 161.399,427.867 161.696,420.538 
				158.058,420.538 155.784,427.867 156.135,420.538 153.246,420.538 152.52,436.416 155.806,436.416 158.3,427.658 
				158.047,436.416 161.871,436.416 165.355,423.911 			"/>
			<path fill="#DBD9D6" d="M172.563,426.076c0.121-0.78-0.044-1.374-0.484-1.791c-0.066-0.066-0.143-0.132-0.22-0.187
				c-0.615-0.418-1.363-0.626-2.264-0.626c-0.396,0-0.758,0.022-1.099,0.077c-1.626,0.264-2.56,1.143-2.802,2.637l-0.341,2.132
				l-0.89,5.56c-0.176,1.088,0.121,1.857,0.89,2.286c0.505,0.286,1.22,0.428,2.143,0.428c0.363,0,0.692-0.022,1-0.066
				c1.626-0.231,2.56-1.077,2.791-2.527l0.791-4.934L172.563,426.076z M169.64,426.098l-1.143,7.098l-0.121,0.769
				c-0.066,0.44-0.275,0.659-0.604,0.659c-0.341,0-0.473-0.22-0.407-0.659l1.132-7.098l0.132-0.769
				c0.066-0.428,0.264-0.637,0.604-0.637C169.574,425.461,169.706,425.669,169.64,426.098z"/>
			<polygon fill="#DBD9D6" points="184.43,420.538 183.628,420.538 181.518,420.538 179.585,432.57 178.969,436.416 
				179.585,436.416 181.892,436.416 183.628,425.549 			"/>
			<path fill="#DBD9D6" d="M212.352,426.186c0.121-0.758,0.022-1.363-0.286-1.802c-0.429-0.604-1.275-0.912-2.538-0.912
				c-0.593,0-1.132,0.055-1.593,0.176c-1.329,0.33-2.088,1.143-2.297,2.428l-0.418,2.571h2.714h0.099
				c0.033-0.187,0.066-0.461,0.088-0.824c0.044-0.363,0.077-0.637,0.11-0.824c0.165-1.022,0.429-1.538,0.813-1.538
				c0.341,0,0.473,0.209,0.406,0.637l-0.308,1.901c-0.033,0.22-0.418,0.516-1.154,0.89c-0.022,0.011-0.033,0.011-0.055,0.022
				c-1.242,0.626-2.088,1.154-2.538,1.582c-0.187,0.176-0.352,0.374-0.473,0.582c-0.176,0.286-0.286,0.593-0.341,0.923l-0.418,2.582
				c-0.143,0.89,0.11,1.483,0.758,1.78c0.33,0.154,0.769,0.231,1.308,0.231c0.78,0,1.352-0.132,1.703-0.384
				c0.11-0.088,0.209-0.176,0.275-0.286l-0.077,0.494h2.571l1.363-8.45L212.352,426.186z M208.176,434.01
				c-0.033,0.231-0.11,0.396-0.242,0.495c-0.088,0.066-0.198,0.099-0.33,0.099c-0.352,0-0.495-0.198-0.429-0.594l0.374-2.329
				c0.044-0.253,0.165-0.462,0.385-0.637c0.187-0.143,0.451-0.253,0.78-0.341L208.176,434.01z"/>
			<path fill="#DBD9D6" d="M218.242,429.867c-1.484-0.857-2.275-1.472-2.385-1.824c-0.099-0.352-0.099-0.879,0.022-1.571
				c0.099-0.67,0.341-1.011,0.703-1.011c0.363,0,0.45,0.538,0.286,1.604l-0.319,1.549h2.846l0.099-0.626l0.308-1.912
				c0.121-0.736,0.022-1.308-0.308-1.725c-0.44-0.582-1.297-0.879-2.582-0.879c-2.264,0-3.538,0.901-3.824,2.714l-0.275,1.725
				c-0.11,0.692-0.044,1.198,0.22,1.549c0.253,0.341,1.077,0.945,2.461,1.813c0.352,0.308,0.439,1.011,0.264,2.099
				c-0.132,0.835-0.363,1.253-0.692,1.253s-0.451-0.22-0.384-0.659l0.439-2.725h-2.912l-0.143,0.934l-0.297,1.824
				c-0.11,0.703-0.011,1.264,0.297,1.681c0.44,0.615,1.33,0.912,2.67,0.912c2.296,0,3.593-0.901,3.879-2.714l0.308-1.923
				C219.066,431.087,218.835,430.394,218.242,429.867z"/>
			<path fill="#DBD9D6" d="M188.463,423.944c-0.319-0.286-0.802-0.44-1.484-0.461c-0.077-0.011-0.165-0.011-0.242-0.011
				c-0.593,0-1.11,0.154-1.582,0.484c-0.462,0.319-0.736,0.758-0.824,1.297l-0.703,4.384l-0.78,4.857
				c-0.099,0.648,0.077,1.154,0.539,1.538c0.077,0.055,0.154,0.121,0.242,0.165c0.428,0.264,0.945,0.395,1.571,0.395
				c0.626,0,1.22-0.198,1.78-0.593c0-0.011,0.011-0.011,0.011-0.011l0.176,0.428h2.198l2.549-15.878h-2.912L188.463,423.944z
				 M188.122,426.032l-1.143,7.153l-0.132,0.824c-0.066,0.396-0.264,0.594-0.593,0.594c-0.341,0-0.483-0.198-0.428-0.594
				l1.154-7.142l0.132-0.813c0.055-0.396,0.264-0.593,0.604-0.593C188.046,425.461,188.188,425.647,188.122,426.032z"/>
			<path fill="#DBD9D6" d="M224.329,423.472c-2.264,0-3.538,0.901-3.824,2.714l-0.275,1.725c-0.11,0.692-0.044,1.198,0.22,1.549
				c0.253,0.341,1.077,0.945,2.461,1.813c0.352,0.308,0.439,1.011,0.264,2.099c-0.132,0.835-0.363,1.253-0.692,1.253
				c-0.33,0-0.451-0.22-0.385-0.659l0.439-2.725h-2.912l-0.132,0.835l-0.308,1.923c-0.11,0.714-0.011,1.286,0.308,1.703
				c0.45,0.593,1.34,0.89,2.659,0.89c2.297,0,3.593-0.901,3.879-2.714l0.308-1.923c0.143-0.868-0.088-1.56-0.681-2.088
				c-1.483-0.857-2.275-1.472-2.385-1.824c-0.099-0.352-0.099-0.879,0.022-1.571c0.099-0.67,0.341-1.011,0.703-1.011
				s0.451,0.538,0.286,1.604l-0.319,1.549h2.846l0.407-2.538C227.505,424.34,226.538,423.472,224.329,423.472z"/>
			<polygon fill="#DBD9D6" points="205.715,420.538 204.924,420.538 202.803,420.538 200.99,431.812 200.254,436.416 
				200.99,436.416 203.166,436.416 204.924,425.472 			"/>
			<path fill="#DBD9D6" d="M197.638,430.043l-0.626,3.912c-0.044,0.264-0.209,0.396-0.494,0.396c-0.308,0-0.451-0.132-0.407-0.396
				l1.769-11.01c0.044-0.264,0.22-0.396,0.527-0.396c0.286,0,0.417,0.132,0.374,0.396l-0.505,3.143h2.714h0.22l0.462-2.879
				c0.176-1.055-0.055-1.813-0.681-2.275c-0.483-0.363-1.22-0.538-2.198-0.538c-2.483,0-3.89,1.022-4.22,3.088l-1.637,10.219
				c-0.308,1.912,0.78,2.857,3.263,2.857c0.857,0,1.67-0.22,2.417-0.681c0.758-0.451,1.198-1.055,1.319-1.813l0.648-4.022H197.638z"
				/>
		</g>
	</g>
</g>
</svg>
